<svg xmlns="http://www.w3.org/2000/svg" xmlns:xlink="http://www.w3.org/1999/xlink" id="Ecommerce" viewBox="0 0 1372.11 896.13"><defs><style>.cls-1,.cls-14,.cls-15,.cls-20,.cls-23,.cls-28,.cls-3,.cls-4,.cls-44,.cls-49,.cls-53{fill:none;}.cls-2{fill:#d5f7f0;}.cls-28,.cls-3,.cls-4,.cls-44,.cls-49,.cls-53{stroke:#fff;}.cls-15,.cls-20,.cls-3,.cls-4,.cls-49,.cls-53{stroke-linecap:round;}.cls-15,.cls-3,.cls-4,.cls-49{stroke-linejoin:round;}.cls-3{stroke-width:2.35px;}.cls-4{stroke-width:1.88px;}.cls-10,.cls-12,.cls-5{fill:#fff;}.cls-6{fill:#9ff7ea;}.cls-7{fill:#ccfff6;}.cls-33,.cls-8{fill:#35d8c8;}.cls-9{fill:#62eddc;}.cls-10,.cls-12,.cls-14,.cls-15{stroke:#764582;}.cls-10,.cls-12,.cls-14,.cls-20,.cls-23,.cls-28,.cls-44,.cls-53{stroke-miterlimit:10;}.cls-10,.cls-28{stroke-width:2.3px;}.cls-11,.cls-13,.cls-26,.cls-55{fill:#764582;}.cls-11,.cls-33,.cls-45,.cls-48{fill-rule:evenodd;}.cls-12,.cls-15{stroke-width:2.42px;}.cls-14{stroke-width:2.99px;}.cls-16,.cls-31,.cls-48{fill:#a1abad;}.cls-16,.cls-26,.cls-47,.cls-48,.cls-51,.cls-55{isolation:isolate;}.cls-16,.cls-48{opacity:0.7;}.cls-17{fill:#d6cfff;}.cls-18{fill:#e2e2e2;}.cls-19{fill:#0d093a;}.cls-20,.cls-23{stroke:#efe9da;stroke-width:2.73px;}.cls-21{fill:#dd4026;}.cls-22{fill:#ffd25a;}.cls-24{fill:#3c8460;}.cls-25{fill:#71bf9d;}.cls-26{opacity:0.2;}.cls-27{fill:#bef4eb;}.cls-29{fill:#fdeeff;}.cls-30{fill:#ef8e62;}.cls-32{fill:#f36e21;}.cls-34,.cls-45{fill:#ffb072;}.cls-35{fill:#3e2344;}.cls-36{fill:#ffdcae;}.cls-37{fill:#f2af94;}.cls-38,.cls-51{fill:#ffbe57;}.cls-39{fill:#f99441;}.cls-40{fill:#1c1259;}.cls-41{clip-path:url(#clip-path);}.cls-42{fill:#f29353;}.cls-43{clip-path:url(#clip-path-2);}.cls-44,.cls-49,.cls-53{stroke-width:1.18px;}.cls-46,.cls-47{fill:#e57e55;}.cls-47,.cls-51{opacity:0.5;}.cls-50{clip-path:url(#clip-path-3);}.cls-52{clip-path:url(#clip-path-4);}.cls-54{fill:#fd6141;}.cls-55{opacity:0.3;}.cls-56{fill:#00b2a9;}</style><clipPath id="clip-path" transform="translate(-230.89 -66.33)"><path class="cls-1" d="M721.9,800.5a16.84,16.84,0,0,0,1.24,11.71c-.54.24-.13,2.49.85,2.91a23.51,23.51,0,0,0,11.23-.91,1.79,1.79,0,0,0-.06-1.5,17.13,17.13,0,0,0,8.05-.33,30.32,30.32,0,0,0,11.47-4.31c.7-.45.21-2-.57-1.78,0,0-.52-4.12-4-3.88a26,26,0,0,1-15.79-4.62,14,14,0,0,0-4.71-2A8.08,8.08,0,0,0,721.9,800.5Z"></path></clipPath><clipPath id="clip-path-2" transform="translate(-230.89 -66.33)"><path class="cls-1" d="M549.34,780.06a16.82,16.82,0,0,0-9.14,7.42c-.5-.31-2.15,1.25-2,2.32a23.49,23.49,0,0,0,6.89,8.93,1.79,1.79,0,0,0,1.22-.87,17.2,17.2,0,0,0,4.68,6.56,30.56,30.56,0,0,0,9.86,7.26c.75.34,1.82-1,1.18-1.46,0,0,3.18-2.68,1.11-5.46A26,26,0,0,1,558.39,789a13.06,13.06,0,0,0-.86-5.06A8,8,0,0,0,549.34,780.06Z"></path></clipPath><clipPath id="clip-path-3" transform="translate(-230.89 -66.33)"><path class="cls-1" d="M1191.69,787.88a65,65,0,0,1,5.48,5.27c.78,1.16,3.79,9.71,3.79,9.71a7.26,7.26,0,0,1-4.71,3.25l-3.81-4.86a49.19,49.19,0,0,1-3.88,11.32c-2.37,3.35-16,7.23-18,6.21a6,6,0,0,1,1.75-7.71c7.88-5.05,8.07-15.63,8.07-15.63a7.41,7.41,0,0,1,11.31-7.56Z"></path></clipPath><clipPath id="clip-path-4" transform="translate(-230.89 -66.33)"><path class="cls-1" d="M1224.39,794a65.16,65.16,0,0,1,3.24,6.87c.33,1.37.11,10.39.11,10.39a7.25,7.25,0,0,1-5.57,1.37l-1.81-5.91a24.28,24.28,0,0,1-5.61,7.67c-3.41,2.29-15.54,5.1-17.6,4.1,0,0-2.8-5.42,1.7-7.76,11.28-5.83,12.28-13.79,12.28-13.79A7.42,7.42,0,0,1,1224.4,794Z"></path></clipPath></defs><path id="Path_34301" data-name="Path 34301" class="cls-2" d="M1427,704.21c-4.26-21.93-45-25.58-45-25.58s23.81-39.74,6.92-57.74-55.76,24.26-55.76,24.26-12.82-26.7-31.88,0c0,0-31.78-24.25-59.26-11.78-19.62,8.9-16.73,32.43-13.47,45.16H688.9a12.71,12.71,0,0,0-1.74-2.72c-18.23-22-71.09-10.67-71.09-10.67s22.08-54.52-14.33-71-78.48,15.61-78.48,15.61c-25.26-35.37-42.26,0-42.26,0s-51.44-56-73.82-32.14S416.36,654,416.36,654s-54,4.88-59.68,33.89,93.48,59.24,93.48,59.24l906.25,1.73S1431.22,726.15,1427,704.21Z" transform="translate(-230.89 -66.33)"></path><path id="Path_34302" data-name="Path 34302" class="cls-3" d="M502.26,739A402.75,402.75,0,0,0,430,613.08" transform="translate(-230.89 -66.33)"></path><path id="Path_34303" data-name="Path 34303" class="cls-3" d="M502.24,740.67A783.8,783.8,0,0,1,513.51,632.6" transform="translate(-230.89 -66.33)"></path><path id="Path_34304" data-name="Path 34304" class="cls-3" d="M492.51,715.51a265.24,265.24,0,0,0-74.2-24" transform="translate(-230.89 -66.33)"></path><path id="Path_34305" data-name="Path 34305" class="cls-3" d="M468.65,666.32A132.9,132.9,0,0,0,478.21,632" transform="translate(-230.89 -66.33)"></path><path id="Path_34306" data-name="Path 34306" class="cls-4" d="M1313.08,743a322.4,322.4,0,0,1,57.84-100.84" transform="translate(-230.89 -66.33)"></path><path id="Path_34307" data-name="Path 34307" class="cls-4" d="M1313.08,744.36a626.53,626.53,0,0,0-9-86.52" transform="translate(-230.89 -66.33)"></path><path id="Path_34308" data-name="Path 34308" class="cls-4" d="M1320.85,724.23a211.66,211.66,0,0,1,59.4-19.18" transform="translate(-230.89 -66.33)"></path><path id="Path_34309" data-name="Path 34309" class="cls-4" d="M1339.93,684.86a106.11,106.11,0,0,1-7.64-27.52" transform="translate(-230.89 -66.33)"></path><path id="Path_34310" data-name="Path 34310" class="cls-5" d="M456.36,591.66a3.12,3.12,0,0,1,1.13.58,2.81,2.81,0,0,1,.81,1,1,1,0,0,1-.4,1.31,1.05,1.05,0,0,1-.72.08,3.19,3.19,0,0,1-1.11-.58,2.92,2.92,0,0,1-.81-1,1,1,0,0,1,.47-1.31,1,1,0,0,1,.63-.07Z" transform="translate(-230.89 -66.33)"></path><path id="Path_34311" data-name="Path 34311" class="cls-5" d="M460,594.62a3.07,3.07,0,0,1,1.12.61,3.12,3.12,0,0,1,.79,1,1,1,0,0,1-.54,1.3,1.1,1.1,0,0,1-.62.06,3.17,3.17,0,0,1-1.87-1.59,1,1,0,0,1,.49-1.29,1,1,0,0,1,.64-.06Z" transform="translate(-230.89 -66.33)"></path><path id="Path_34312" data-name="Path 34312" class="cls-5" d="M464.7,597.67a3.16,3.16,0,0,1,1.86,1.65,1,1,0,0,1-.61,1.3,1,1,0,0,1-.58,0,3.15,3.15,0,0,1-1.84-1.63,1,1,0,0,1,.45-1.29,1,1,0,0,1,.72-.05Z" transform="translate(-230.89 -66.33)"></path><path id="Path_34313" data-name="Path 34313" class="cls-5" d="M469.81,603.28a3.13,3.13,0,0,1,1.07.67,3.09,3.09,0,0,1,.72,1,1,1,0,0,1-.6,1.25,1,1,0,0,1-.65,0,2.86,2.86,0,0,1-1.05-.67,3.12,3.12,0,0,1-.73-1,1,1,0,0,1,.5-1.28,1,1,0,0,1,.72,0Z" transform="translate(-230.89 -66.33)"></path><path id="Path_34314" data-name="Path 34314" class="cls-5" d="M474.09,607.58a1.29,1.29,0,0,1,.71.35,1.26,1.26,0,0,1,.35.71,1.18,1.18,0,0,1-1,1.25h-.23a1.29,1.29,0,0,1-.71-.35,1.33,1.33,0,0,1-.35-.7,1.2,1.2,0,0,1,1-1.25Z" transform="translate(-230.89 -66.33)"></path><path id="Path_34315" data-name="Path 34315" class="cls-5" d="M477.59,610.7a1.23,1.23,0,0,1,.7.37,1.34,1.34,0,0,1,.33.71,1.18,1.18,0,0,1-1.08,1.23h-.23a1.25,1.25,0,0,1-.69-.36,1.3,1.3,0,0,1-.33-.71,1.16,1.16,0,0,1,1.06-1.25A1,1,0,0,1,477.59,610.7Z" transform="translate(-230.89 -66.33)"></path><path id="Path_34316" data-name="Path 34316" class="cls-5" d="M415.37,579.44a19.43,19.43,0,0,1,10.36-2.71,29.91,29.91,0,0,1,10.41,2.38,65.57,65.57,0,0,1,9.31,4.9,95.74,95.74,0,0,1,8.5,6.07.92.92,0,0,1,.15,1.29.91.91,0,0,1-1.24.18c-2.81-2-5.65-3.88-8.58-5.65a63.75,63.75,0,0,0-9-4.63,28,28,0,0,0-9.57-2.34,18.87,18.87,0,0,0-9.41,2.07,1,1,0,0,1-1.19-.36.81.81,0,0,1,.19-1.13l.12-.07Z" transform="translate(-230.89 -66.33)"></path><path id="Path_34317" data-name="Path 34317" class="cls-5" d="M414.33,582.11c-.11.37-.39.55-.56.83a2.05,2.05,0,0,1-.84.55,1.09,1.09,0,0,1-1.31-.65,1.19,1.19,0,0,1,0-.53,2.65,2.65,0,0,1,.57-1,1.86,1.86,0,0,1,1-.55,1,1,0,0,1,1.18.83v0A.93.93,0,0,1,414.33,582.11Z" transform="translate(-230.89 -66.33)"></path><path id="Path_34318" data-name="Path 34318" class="cls-5" d="M411.83,584.89a2.13,2.13,0,0,1-.34,1,3.28,3.28,0,0,1-.71.73,1,1,0,0,1-1.42-.37,1,1,0,0,1-.14-.48,1.89,1.89,0,0,1,.31-1.08,2.42,2.42,0,0,1,.84-.78,1,1,0,0,1,1.3.41s0,.07.05.1A1.18,1.18,0,0,1,411.83,584.89Z" transform="translate(-230.89 -66.33)"></path><path id="Path_34319" data-name="Path 34319" class="cls-5" d="M410,588.2c-.14.68-.35,1.32-.54,1.94l-.51,1.94c-.33,1.32-.6,2.66-1,4a.9.9,0,0,1-1.1.62.84.84,0,0,1-.67-.82,18.59,18.59,0,0,1,.53-4.33l.66-2.11a20.64,20.64,0,0,1,1-1.94.88.88,0,0,1,1.2-.3l.05,0A1,1,0,0,1,410,588.2Z" transform="translate(-230.89 -66.33)"></path><path id="Path_34320" data-name="Path 34320" class="cls-5" d="M408.54,599.64a.9.9,0,0,1-.05,1.25,1.27,1.27,0,0,1-1.76,0h0a.94.94,0,0,1,0-1.27,1.27,1.27,0,0,1,1.76,0Z" transform="translate(-230.89 -66.33)"></path><path id="Path_34321" data-name="Path 34321" class="cls-5" d="M407.69,603.81a1,1,0,0,1,.27.62.93.93,0,0,1-.23.62,1.25,1.25,0,0,1-1.75.11h0a.94.94,0,0,1-.05-1.28,1.29,1.29,0,0,1,1.76-.08Z" transform="translate(-230.89 -66.33)"></path><path id="Path_34322" data-name="Path 34322" class="cls-5" d="M1384.76,648.57a3.46,3.46,0,0,1,0,1.36,3.26,3.26,0,0,1-.55,1.25,1,1,0,0,1-1.36.18,1,1,0,0,1-.37-.6,3.72,3.72,0,0,1,.06-1.33,3.18,3.18,0,0,1,.53-1.22.93.93,0,0,1,1.7.36Z" transform="translate(-230.89 -66.33)"></path><path id="Path_34323" data-name="Path 34323" class="cls-5" d="M1383.59,653.49a3.43,3.43,0,0,1-.11,1.35,3.2,3.2,0,0,1-.6,1.21,1,1,0,0,1-1.37.13,1.07,1.07,0,0,1-.34-.61,3.66,3.66,0,0,1,.69-2.54,1,1,0,0,1,1.73.46Z" transform="translate(-230.89 -66.33)"></path><path id="Path_34324" data-name="Path 34324" class="cls-5" d="M1382.2,658.35a3.2,3.2,0,0,1-.14,1.34,3.42,3.42,0,0,1-.65,1.2,1,1,0,0,1-1.37,0l0,0a1,1,0,0,1-.29-.58,3.27,3.27,0,0,1,.17-1.32,3.47,3.47,0,0,1,.62-1.19,1,1,0,0,1,1.37-.1.93.93,0,0,1,.33.64Z" transform="translate(-230.89 -66.33)"></path><path id="Path_34325" data-name="Path 34325" class="cls-5" d="M1379.38,666.84a3.59,3.59,0,0,1-.22,1.34,3.37,3.37,0,0,1-.7,1.16,1,1,0,0,1-1.37,0l0,0a1,1,0,0,1-.25-.61,3.68,3.68,0,0,1,.22-1.31,3.21,3.21,0,0,1,.69-1.15,1,1,0,0,1,1.67.57Z" transform="translate(-230.89 -66.33)"></path><path id="Path_34326" data-name="Path 34326" class="cls-5" d="M1375.78,672.8a1.42,1.42,0,0,1-.06.84,1.31,1.31,0,0,1-.53.65,1.12,1.12,0,0,1-1.53-.4l0-.06a.67.67,0,0,1-.09-.21,1.44,1.44,0,0,1,.06-.82,1.53,1.53,0,0,1,.53-.65,1.12,1.12,0,0,1,1.54.39l0,.05a.85.85,0,0,1,.09.22Z" transform="translate(-230.89 -66.33)"></path><path id="Path_34327" data-name="Path 34327" class="cls-5" d="M1375,677.76a1.51,1.51,0,0,1-.09.84,1.49,1.49,0,0,1-.55.64,1.12,1.12,0,0,1-1.53-.45l0-.06a1.8,1.8,0,0,1-.08-.21,1.29,1.29,0,0,1,.09-.82,1.38,1.38,0,0,1,.54-.63,1.13,1.13,0,0,1,1.53.43l0,0Z" transform="translate(-230.89 -66.33)"></path><path id="Path_34328" data-name="Path 34328" class="cls-5" d="M1359.31,627.64A40.53,40.53,0,0,1,1369.6,623a14.84,14.84,0,0,1,11.55.86,9.47,9.47,0,0,1,3.88,4.72,20.39,20.39,0,0,1,1.19,5.72,46.53,46.53,0,0,1-1,11.23.89.89,0,0,1-1.77-.26.09.09,0,0,0,0-.05,49.9,49.9,0,0,0,.6-10.78,10.57,10.57,0,0,0-4-8.66,13.14,13.14,0,0,0-9.81-.69,43.42,43.42,0,0,0-10,4.11.89.89,0,1,1-.94-1.51l.05,0Z" transform="translate(-230.89 -66.33)"></path><path id="Path_34329" data-name="Path 34329" class="cls-5" d="M1357.91,631.73a2.42,2.42,0,0,1-.8.79,2.49,2.49,0,0,1-1,.4A1,1,0,0,1,1355,632v0a1.17,1.17,0,0,1,.12-.52,2.3,2.3,0,0,1,.81-.83,2.66,2.66,0,0,1,1.09-.4,1,1,0,0,1,1.06,1,1,1,0,0,1-.13.53Z" transform="translate(-230.89 -66.33)"></path><path id="Path_34330" data-name="Path 34330" class="cls-5" d="M1354.4,632.62a2.33,2.33,0,0,1-.76.83,2.5,2.5,0,0,1-1,.45,1,1,0,0,1-1.13-.78.62.62,0,0,1,0-.19,1,1,0,0,1,.1-.52,2.37,2.37,0,0,1,.76-.87,2.79,2.79,0,0,1,1.07-.44,1,1,0,0,1,1.11.82.76.76,0,0,1,0,.15A1.15,1.15,0,0,1,1354.4,632.62Z" transform="translate(-230.89 -66.33)"></path><path id="Path_34331" data-name="Path 34331" class="cls-5" d="M1351,635.08c-1.06,1.07-2.23,1.94-3.37,2.91a32.52,32.52,0,0,1-3.61,2.69.89.89,0,0,1-1.16-1.34,28.88,28.88,0,0,1,3.33-3.12,30.24,30.24,0,0,1,3.74-2.62.9.9,0,0,1,1.23.3l0,0A1,1,0,0,1,1351,635.08Z" transform="translate(-230.89 -66.33)"></path><path id="Path_34332" data-name="Path 34332" class="cls-5" d="M1340.52,643.26a1,1,0,0,1-1,.9,1.21,1.21,0,0,1-1.21-1.2v-.05h0a1.07,1.07,0,0,1,.33-.65,1.11,1.11,0,0,1,.67-.27,1.22,1.22,0,0,1,1.21,1.22v.06Z" transform="translate(-230.89 -66.33)"></path><path id="Path_34333" data-name="Path 34333" class="cls-5" d="M1337.44,646.37a1,1,0,0,1-1,1,1.22,1.22,0,0,1-1.25-1.18v0h0a1,1,0,0,1,1-1,1.19,1.19,0,0,1,1.25,1.16v0Z" transform="translate(-230.89 -66.33)"></path><path id="Path_34334" data-name="Path 34334" class="cls-6" d="M903.13,508.65c-137.22-2.16-504.21,111.44-549,0-36.89-91.85,101-84.79,109.09-160.79s-27.87-108.47,29.36-143.7S643.16,217.86,704.8,169,798.58,84.52,937.28,67.61,1178.66,207,1238,222.5s144.37-23.95,186.08,23.93-93,153.82-64.17,198.06,99.58,68.12,72.25,130.11S1036.69,510.75,903.13,508.65Z" transform="translate(-230.89 -66.33)"></path><path id="Path_34335" data-name="Path 34335" class="cls-5" d="M355.47,466.12a5,5,0,0,1,.35-1.74,6.06,6.06,0,0,1,.89-1.54.88.88,0,0,1,1.2-.29.82.82,0,0,1,.25.24,1.33,1.33,0,0,1,.19.73,5.57,5.57,0,0,1-.38,1.66,7.25,7.25,0,0,1-.81,1.5.89.89,0,0,1-1.44.17A1.26,1.26,0,0,1,355.47,466.12Z" transform="translate(-230.89 -66.33)"></path><path id="Path_34336" data-name="Path 34336" class="cls-5" d="M358,460a5.45,5.45,0,0,1,.59-1.67,5.24,5.24,0,0,1,1-1.42c.57-.46,1.22-.38,1.47.14a1.38,1.38,0,0,1,.09.75,7,7,0,0,1-.59,1.6,6.67,6.67,0,0,1-1,1.39.91.91,0,0,1-1.27.19.86.86,0,0,1-.19-.19A1.36,1.36,0,0,1,358,460Z" transform="translate(-230.89 -66.33)"></path><path id="Path_34337" data-name="Path 34337" class="cls-5" d="M361.28,454.2a5.88,5.88,0,0,1,.76-1.6,5.26,5.26,0,0,1,1.22-1.27c.59-.41,1.25-.27,1.43.29a1.23,1.23,0,0,1,0,.76,5.7,5.7,0,0,1-.78,1.51,5.52,5.52,0,0,1-1.14,1.27c-.57.42-1.23.34-1.46-.2A1.23,1.23,0,0,1,361.28,454.2Z" transform="translate(-230.89 -66.33)"></path><path id="Path_34338" data-name="Path 34338" class="cls-5" d="M368.55,445a5.7,5.7,0,0,1,2.45-2.48.9.9,0,0,1,1.24.29.77.77,0,0,1,.12.26,1.13,1.13,0,0,1-.13.74,6.53,6.53,0,0,1-1,1.38,6.25,6.25,0,0,1-1.36,1c-.62.32-1.25.12-1.39-.45A1.28,1.28,0,0,1,368.55,445Z" transform="translate(-230.89 -66.33)"></path><path id="Path_34339" data-name="Path 34339" class="cls-5" d="M374.62,439.23a2.15,2.15,0,0,1,.65-.87,2.18,2.18,0,0,1,1-.46,1,1,0,0,1,1.17.72,1.13,1.13,0,0,1,0,.41,1.25,1.25,0,0,1-.07.26,2.17,2.17,0,0,1-.62.84,2.27,2.27,0,0,1-1,.46,1,1,0,0,1-1.19-.68,1.12,1.12,0,0,1,0-.41A2.76,2.76,0,0,1,374.62,439.23Z" transform="translate(-230.89 -66.33)"></path><path id="Path_34340" data-name="Path 34340" class="cls-5" d="M380.27,435a2.24,2.24,0,0,1,1.77-1.16,1,1,0,0,1,1.07.86.94.94,0,0,1,0,.41l-.09.25a2.26,2.26,0,0,1-1.71,1.11,1,1,0,0,1-1.12-.79,1.19,1.19,0,0,1,0-.42,2,2,0,0,1,.1-.26Z" transform="translate(-230.89 -66.33)"></path><path id="Path_34341" data-name="Path 34341" class="cls-5" d="M370.41,524.2c-1.68-1.76-3.07-3.79-4.61-5.68-1.32-2-2.67-4.07-3.88-6.18s-2.24-4.33-3.25-6.53L356,499a56.36,56.36,0,0,1-2.91-14.37,44.42,44.42,0,0,1,1.47-14.56c.18-.66.71-1.07,1.19-.91a1.08,1.08,0,0,1,.54,1.33,46.74,46.74,0,0,0-1,14,53.57,53.57,0,0,0,2.91,13.78l2.57,6.64c1,2.16,2.07,4.26,3.12,6.38s2.44,4.06,3.67,6.09c1.43,1.87,2.72,3.88,4.28,5.66a1,1,0,0,1,.11,1.45h0A1.09,1.09,0,0,1,370.41,524.2Z" transform="translate(-230.89 -66.33)"></path><path id="Path_34342" data-name="Path 34342" class="cls-5" d="M373.83,525.61a4.92,4.92,0,0,1,1.16.86,3.83,3.83,0,0,1,.88,1.15.89.89,0,0,1-.25,1.23,1.11,1.11,0,0,1-.34.14,1.5,1.5,0,0,1-.63-.08,4.29,4.29,0,0,1-1.24-.81,3.77,3.77,0,0,1-.84-1.25c-.25-.69.06-1.3.68-1.35A1.16,1.16,0,0,1,373.83,525.61Z" transform="translate(-230.89 -66.33)"></path><path id="Path_34343" data-name="Path 34343" class="cls-5" d="M377.78,529.35a5.26,5.26,0,0,1,1.24.75,3.6,3.6,0,0,1,1,1c.35.63.15,1.28-.46,1.42a1.3,1.3,0,0,1-.62,0,4.46,4.46,0,0,1-1.33-.7,3.5,3.5,0,0,1-1-1.16c-.32-.67-.06-1.29.55-1.41A1.3,1.3,0,0,1,377.78,529.35Z" transform="translate(-230.89 -66.33)"></path><path id="Path_34344" data-name="Path 34344" class="cls-5" d="M382,532.72l5,2.91,5.05,2.84a1,1,0,0,1,.57,1.25.54.54,0,0,1-.05.11,1.07,1.07,0,0,1-1.25.26,30.33,30.33,0,0,1-5.45-2.46A37.3,37.3,0,0,1,381,534.2c-.49-.47-.59-1.12-.22-1.45A1.08,1.08,0,0,1,382,532.72Z" transform="translate(-230.89 -66.33)"></path><path id="Path_34345" data-name="Path 34345" class="cls-5" d="M396.66,539.05a1.68,1.68,0,0,1,.89,0,1.6,1.6,0,0,1,.75.51,1,1,0,0,1-.05,1.45,1,1,0,0,1-.41.23h0a1.67,1.67,0,0,1-.94,0,1.69,1.69,0,0,1-.78-.51,1,1,0,0,1,.09-1.44,1,1,0,0,1,.44-.23Z" transform="translate(-230.89 -66.33)"></path><path id="Path_34346" data-name="Path 34346" class="cls-5" d="M402.24,541.73a1.69,1.69,0,0,1,.89-.08,1.5,1.5,0,0,1,.79.38,1,1,0,0,1-.21,1.74h0a1.7,1.7,0,0,1-1,.11,1.74,1.74,0,0,1-.84-.43,1,1,0,0,1,.32-1.73Z" transform="translate(-230.89 -66.33)"></path><path id="Path_34347" data-name="Path 34347" class="cls-6" d="M907.92,138.74q-96.4,15.67-150,87.75c-33.34,43.89-26.21,100.31,2.37,144.19,26.21,41.75,76.19,56.43,123.8,66.88,133.32,31.35,254.74,71.06,380.92,110.76,54.75,16.72,119,41.75,166.65,4.19l.07-.06a14.89,14.89,0,0,0,5.55-14.76c-7.57-37-55-59.07-77.37-93.28-28.87-44.18,105.83-150.14,64.17-198.06S1297.38,237.9,1238,222.42a83.31,83.31,0,0,1-22.93-10.95C1108.9,188,1025,120.6,907.92,138.74Z" transform="translate(-230.89 -66.33)"></path><path id="Path_34348" data-name="Path 34348" class="cls-7" d="M1380.6,580.57c-56.09,0-152.43-21.53-245.56-42.34-91.67-20.48-178.26-39.8-231.7-40.67h-4.17c-43.93,0-108.64,10.53-177.16,21.67-79,12.85-168.54,27.41-238,27.41-68.43,0-107.21-13.76-118.59-42.07-17.58-43.75,8.35-59.36,44.23-81,28.79-17.35,61.42-37,65.47-75.43a283.45,283.45,0,0,0-1.75-66.88c-3.88-33-5.75-49.59,26.09-69.16,13.73-8.42,30.78-12,57.05-12,10,0,20.23.49,31.07,1s22.26,1.08,33.51,1.08c27.42,0,62.63-2.91,91.76-26.07,5.67-4.49,11.09-8.87,16.36-13.14C780,121.88,816.64,92.21,939,77.31a158.85,158.85,0,0,1,19.37-1.18c77.67,0,143.7,56.31,196.8,101.48,31.68,27,56.69,48.3,79.53,54.25a152,152,0,0,0,38.66,4.29c13.93,0,28.32-1.2,42.24-2.34s26.94-2.25,39.51-2.25c29.23,0,47.05,6.16,59.6,20.57,17.24,19.81-9.18,60-32.49,95.48-25.49,38.75-49.52,75.37-32.56,101.4,9.84,15,23.7,27.52,37.1,39.58,28.16,25.32,50.36,45.31,34.38,81.55C1418.09,576.86,1403.74,580.57,1380.6,580.57Z" transform="translate(-230.89 -66.33)"></path><rect id="Rectangle_2207" data-name="Rectangle 2207" class="cls-8" x="336.78" y="222.19" width="733.23" height="405.62" rx="12.01"></rect><rect id="Rectangle_2208" data-name="Rectangle 2208" class="cls-9" x="324.3" y="206.58" width="733.23" height="405.62" rx="12.01"></rect><rect id="Rectangle_2209" data-name="Rectangle 2209" class="cls-10" x="311.82" y="190.98" width="733.23" height="405.62" rx="6.61"></rect><path id="Path_34349" data-name="Path 34349" class="cls-11" d="M583.27,294.75h46.8v-3.12h-46.8Zm-12.48,0H577v-6.24h-6.24Zm12.48,12.48h46.8v-3.12h-46.8Zm-12.48,3.12H577v-6.24h-6.24Zm12.48,12.48h46.8v-3.12h-46.8ZM570.79,326H577v-6.24h-6.24Z" transform="translate(-230.89 -66.33)"></path><rect id="Rectangle_2210" data-name="Rectangle 2210" class="cls-12" x="339.9" y="281.47" width="209.05" height="202.81" rx="47.15"></rect><rect id="Rectangle_2211" data-name="Rectangle 2211" class="cls-12" x="573.91" y="281.47" width="209.05" height="202.81" rx="47.15"></rect><rect id="Rectangle_2212" data-name="Rectangle 2212" class="cls-12" x="807.92" y="281.47" width="209.05" height="202.81" rx="47.15"></rect><path id="Path_34350" data-name="Path 34350" class="cls-13" d="M1196,308.74l-3.34-22.28a1.26,1.26,0,0,0-1.23-1.07h-6v-3.12h6.37a4.19,4.19,0,0,1,4.14,3.56l.4,2.68,37.21.24-3.87,17.61Zm1.59-17.33,2.28,15.2,30.46-2.18,2.83-12.8Z" transform="translate(-230.89 -66.33)"></path><path id="Path_34351" data-name="Path 34351" class="cls-13" d="M1232.24,316.59l-34.58-.19a2.55,2.55,0,0,1-2.52-2.58,2.19,2.19,0,0,1,0-.36l.67-4.2,2.89.47-.6,3.74,34.12.2Z" transform="translate(-230.89 -66.33)"></path><path id="Path_34352" data-name="Path 34352" class="cls-14" d="M1207.76,321a3.89,3.89,0,1,1-1.12-2.77A3.89,3.89,0,0,1,1207.76,321Z" transform="translate(-230.89 -66.33)"></path><path id="Path_34353" data-name="Path 34353" class="cls-14" d="M1228.27,321.11a3.89,3.89,0,1,1-3.84-3.94,3.89,3.89,0,0,1,3.84,3.94Z" transform="translate(-230.89 -66.33)"></path><line id="Line_57" data-name="Line 57" class="cls-15" x1="573.91" y1="499.88" x2="782.96" y2="499.88"></line><path id="Path_34354" data-name="Path 34354" class="cls-16" d="M991,477.71c0,2.86-34.22,5.18-76.44,5.18s-76.44-2.32-76.44-5.18,34.22-5.18,76.44-5.18S991,474.85,991,477.71Z" transform="translate(-230.89 -66.33)"></path><path id="Path_34355" data-name="Path 34355" class="cls-17" d="M853.69,423.7s1.52-3.88,14.91,1.21c7.25,2.76,16.72,9.41,35.13,1.38,0,0,5.61,18.61-17.86,17A39,39,0,0,1,853.69,423.7Z" transform="translate(-230.89 -66.33)"></path><path id="Path_34356" data-name="Path 34356" class="cls-18" d="M984.17,452.76l5.43,1.44c3.09,1.63,2.91,9.85.38,12.39,0,0-21.94,12.83-86.2,13.91-37-.7-61.67-7-62.8-9.54a32,32,0,0,1-1-12.09l7-8.11Z" transform="translate(-230.89 -66.33)"></path><path id="Path_34357" data-name="Path 34357" class="cls-19" d="M853.69,423.68s-7.24,6.95-8.12,12.68c-1.24,8.23-2.62,12.3-1.72,20.59,0,0,20.83,8.12,55.55,8.54a357.25,357.25,0,0,0,59.71-4.06c15.31-2.73,30.49-6.38,30.49-6.38-4.42-15.47-17.78-9.71-36.9-15.77-13-4.09-43.82-29.57-43.82-29.57s-7.16,5.31-7.55,8c-.24,1.73,3.17,6.2,3.17,6.2s-.87,14.63-15.46,15.6C874.86,440.51,853.69,423.68,853.69,423.68Z" transform="translate(-230.89 -66.33)"></path><path id="Path_34358" data-name="Path 34358" class="cls-1" d="M989.6,455.08a83.52,83.52,0,0,1-28.35,11.06,329.85,329.85,0,0,1-62.79,3.78c-19.38-.7-58.5-10.18-58.5-10.18" transform="translate(-230.89 -66.33)"></path><path id="Path_34359" data-name="Path 34359" class="cls-20" d="M904.54,424a44.9,44.9,0,0,1,10,1c6.18,2.15,24,16.39,37.4,18.09" transform="translate(-230.89 -66.33)"></path><path id="Path_34360" data-name="Path 34360" class="cls-18" d="M926.66,423.42l-6,9.63c-.82,1.14-4.39-1.42-3.57-2.56l5.52-10.17C923.82,418.78,927.83,421.89,926.66,423.42Z" transform="translate(-230.89 -66.33)"></path><path id="Path_34361" data-name="Path 34361" class="cls-18" d="M935.31,428.55,929,438.76c-.76,1.71-4.77-.06-4-1.78l6.27-11.55C932.49,423.91,936.51,427,935.31,428.55Z" transform="translate(-230.89 -66.33)"></path><path id="Path_34362" data-name="Path 34362" class="cls-18" d="M944,433.66,937.64,444c-.68,1.46-4.61-.37-3.88-1.82L940,430.58C941.17,429,945.18,432.12,944,433.66Z" transform="translate(-230.89 -66.33)"></path><path id="Path_34363" data-name="Path 34363" class="cls-18" d="M907.61,428.75a2.28,2.28,0,0,1,4.54.19l-1.8,17.11c0,2.46-2.59,2.46-2.59,0Z" transform="translate(-230.89 -66.33)"></path><path id="Path_34364" data-name="Path 34364" class="cls-20" d="M892.68,465.65a18.78,18.78,0,0,1,9.41-11.08c8.2-3.88,27.7,3.43,38.48-2.54a115,115,0,0,0,11.36-9" transform="translate(-230.89 -66.33)"></path><path id="Path_34365" data-name="Path 34365" class="cls-20" d="M847.48,431.85s11.56,5.19,16.94,12c2.43,3.08,5.83,19.63,5.83,19.63" transform="translate(-230.89 -66.33)"></path><path id="Path_34366" data-name="Path 34366" class="cls-16" d="M750.8,477.71c0,2.86-34.22,5.18-76.44,5.18s-76.45-2.32-76.45-5.18,34.22-5.18,76.45-5.18S750.8,474.85,750.8,477.71Z" transform="translate(-230.89 -66.33)"></path><path id="Path_34367" data-name="Path 34367" class="cls-21" d="M613.52,423.7s1.53-3.88,14.91,1.21c7.26,2.76,16.72,9.41,35.12,1.38,0,0,5.62,18.61-17.84,17A39,39,0,0,1,613.52,423.7Z" transform="translate(-230.89 -66.33)"></path><path id="Path_34368" data-name="Path 34368" class="cls-18" d="M744,452.76l5.43,1.44c3.09,1.63,2.92,9.85.38,12.39,0,0-21.94,12.83-86.2,13.91-37-.7-61.66-7-62.8-9.54a32,32,0,0,1-1-12.09l7-8.11Z" transform="translate(-230.89 -66.33)"></path><path id="Path_34369" data-name="Path 34369" class="cls-22" d="M613.53,423.68s-7.24,6.95-8.11,12.68c-1.25,8.23-2.62,12.3-1.74,20.59,0,0,20.85,8.12,55.57,8.54A357.32,357.32,0,0,0,719,461.43c15.31-2.73,30.48-6.38,30.48-6.38-4.41-15.47-17.78-9.71-36.89-15.77-13-4.09-43.83-29.57-43.83-29.57s-7.12,5.31-7.51,8c-.24,1.73,3.16,6.2,3.16,6.2s-.86,14.63-15.46,15.6C634.7,440.51,613.53,423.68,613.53,423.68Z" transform="translate(-230.89 -66.33)"></path><path id="Path_34370" data-name="Path 34370" class="cls-1" d="M749.44,455.08a83.68,83.68,0,0,1-28.35,11.06,329.9,329.9,0,0,1-62.79,3.78c-19.35-.74-58.51-10.18-58.51-10.18" transform="translate(-230.89 -66.33)"></path><path id="Path_34371" data-name="Path 34371" class="cls-23" d="M664.37,424a44.93,44.93,0,0,1,10,1c6.16,2.15,24,16.39,37.39,18.09" transform="translate(-230.89 -66.33)"></path><path id="Path_34372" data-name="Path 34372" class="cls-18" d="M686.47,423.42l-6,9.63c-.81,1.14-4.39-1.42-3.57-2.56l5.53-10.17C683.65,418.78,687.66,421.89,686.47,423.42Z" transform="translate(-230.89 -66.33)"></path><path id="Path_34373" data-name="Path 34373" class="cls-18" d="M695.15,428.55l-6.27,10.21c-.77,1.71-4.77-.06-4-1.78l6.27-11.55C692.32,423.91,696.33,427,695.15,428.55Z" transform="translate(-230.89 -66.33)"></path><path id="Path_34374" data-name="Path 34374" class="cls-18" d="M703.82,433.66,697.53,444c-.68,1.46-4.61-.37-3.93-1.82l6.26-11.55C701,429,705,432.12,703.82,433.66Z" transform="translate(-230.89 -66.33)"></path><path id="Path_34375" data-name="Path 34375" class="cls-18" d="M667.37,428.75a2.28,2.28,0,0,1,4.54.19l-1.81,17.11c0,2.46-2.59,2.46-2.59,0Z" transform="translate(-230.89 -66.33)"></path><path id="Path_34376" data-name="Path 34376" class="cls-23" d="M652.54,465.65a18.8,18.8,0,0,1,9.4-11.08c8.21-3.88,27.7,3.43,38.49-2.54a116,116,0,0,0,11.35-9" transform="translate(-230.89 -66.33)"></path><path id="Path_34377" data-name="Path 34377" class="cls-23" d="M607.32,431.85s11.56,5.19,16.94,12c2.43,3.08,5.83,19.63,5.83,19.63" transform="translate(-230.89 -66.33)"></path><path id="Path_34378" data-name="Path 34378" class="cls-16" d="M1220.15,477.71c0,2.86-34.23,5.18-76.45,5.18s-76.44-2.32-76.44-5.18,34.22-5.18,76.44-5.18S1220.15,474.85,1220.15,477.71Z" transform="translate(-230.89 -66.33)"></path><path id="Path_34379" data-name="Path 34379" class="cls-24" d="M1082.87,423.7s1.53-3.88,14.91,1.21c7.26,2.76,16.71,9.41,35.13,1.38,0,0,5.62,18.61-17.86,17A39,39,0,0,1,1082.87,423.7Z" transform="translate(-230.89 -66.33)"></path><path id="Path_34380" data-name="Path 34380" class="cls-18" d="M1213.36,452.76l5.43,1.44c3.09,1.63,2.91,9.85.38,12.39,0,0-21.94,12.83-86.2,13.91-37-.7-61.67-7-62.81-9.54a32.43,32.43,0,0,1-1-12.09l7-8.11Z" transform="translate(-230.89 -66.33)"></path><path id="Path_34381" data-name="Path 34381" class="cls-25" d="M1082.87,423.68s-7.24,6.95-8.11,12.68c-1.25,8.23-2.62,12.3-1.73,20.59,0,0,20.84,8.12,55.56,8.54a357.32,357.32,0,0,0,59.71-4.06c15.31-2.73,30.48-6.38,30.48-6.38-4.41-15.47-17.78-9.71-36.89-15.77-13-4.09-43.83-29.57-43.83-29.57s-7.15,5.31-7.54,8c-.25,1.73,3.16,6.2,3.16,6.2s-.86,14.63-15.46,15.6C1104.05,440.51,1082.87,423.68,1082.87,423.68Z" transform="translate(-230.89 -66.33)"></path><path id="Path_34382" data-name="Path 34382" class="cls-1" d="M1218.79,455.08a83.68,83.68,0,0,1-28.35,11.06,329.9,329.9,0,0,1-62.79,3.78c-19.35-.74-58.51-10.18-58.51-10.18" transform="translate(-230.89 -66.33)"></path><path id="Path_34383" data-name="Path 34383" class="cls-23" d="M1133.73,424a44.81,44.81,0,0,1,10,1c6.18,2.15,24,16.39,37.4,18.09" transform="translate(-230.89 -66.33)"></path><path id="Path_34384" data-name="Path 34384" class="cls-18" d="M1155.79,423.42l-6,9.63c-.81,1.14-4.39-1.42-3.57-2.56l5.52-10.17C1153,418.78,1157,421.89,1155.79,423.42Z" transform="translate(-230.89 -66.33)"></path><path id="Path_34385" data-name="Path 34385" class="cls-18" d="M1164.53,428.55l-6.27,10.21c-.76,1.71-4.77-.06-4-1.78l6.27-11.55C1161.67,423.91,1165.69,427,1164.53,428.55Z" transform="translate(-230.89 -66.33)"></path><path id="Path_34386" data-name="Path 34386" class="cls-18" d="M1173.16,433.66,1166.82,444c-.68,1.46-4.61-.37-3.88-1.82l6.26-11.55C1170.36,429,1174.36,432.12,1173.16,433.66Z" transform="translate(-230.89 -66.33)"></path><path id="Path_34387" data-name="Path 34387" class="cls-18" d="M1138.51,428.75a2.28,2.28,0,0,1,4.54.19l-1.8,17.11c0,2.46-2.59,2.46-2.6,0Z" transform="translate(-230.89 -66.33)"></path><path id="Path_34388" data-name="Path 34388" class="cls-23" d="M1121.88,465.65a18.85,18.85,0,0,1,9.41-11.08c8.2-3.88,27.7,3.43,38.48-2.54a116.29,116.29,0,0,0,11.37-9" transform="translate(-230.89 -66.33)"></path><path id="Path_34389" data-name="Path 34389" class="cls-23" d="M1076.67,431.85s11.56,5.19,16.94,12c2.43,3.08,5.82,19.63,5.82,19.63" transform="translate(-230.89 -66.33)"></path><path id="Path_34390" data-name="Path 34390" class="cls-13" d="M829.76,386.7v.24c-1.54,1.18-1.83,1.7-2.51,1.42h-6.63c-.69.28-1-.24-.22-1.42v-.24c-.75-1.19-.46-1.69.22-1.46h6.63C827.93,385,828.22,385.45,829.76,386.7Z" transform="translate(-230.89 -66.33)"></path><path id="Path_34391" data-name="Path 34391" class="cls-13" d="M843.61,377.46c0,4.71-2.6,5.7-4.86,5.7s-4.85-1-4.85-5.7,2.6-5.7,4.85-5.7S843.61,372.75,843.61,377.46Zm-6.44,0c0,1.32.29,2.92,1.56,2.92s1.53-1.59,1.53-2.92-.26-2.77-1.53-2.77-1.56,1.45-1.56,2.77Zm15.88-4.22a1.23,1.23,0,0,1-.16.5l-12.18,23a1.59,1.59,0,0,1-1.49,1h-1.5c-.47,0-.71-.21-.71-.47a1.49,1.49,0,0,1,.17-.53l12.13-23a1.6,1.6,0,0,1,1.5-1h1.49c.49,0,.72.17.72.49Zm3.17,18.24c0,4.72-2.6,5.7-4.85,5.7s-4.86-1-4.86-5.7,2.61-5.7,4.86-5.7,4.83,1,4.83,5.7Zm-6.43,0c0,1.32.29,2.91,1.56,2.91s1.52-1.59,1.52-2.91-.26-2.78-1.52-2.78-1.59,1.46-1.59,2.78Z" transform="translate(-230.89 -66.33)"></path><path id="Path_34392" data-name="Path 34392" class="cls-26" d="M1597.63,962.46H236.25a5.36,5.36,0,0,1-3.34-9.55L436.81,790a25.21,25.21,0,0,1,15.71-5.42h928.85a25.21,25.21,0,0,1,15.71,5.42L1601,952.88a5.36,5.36,0,0,1-3.34,9.57Z" transform="translate(-230.89 -66.33)"></path><path id="Path_34393" data-name="Path 34393" class="cls-27" d="M1588.59,893.82H245.32L453.64,727.43a24.39,24.39,0,0,1,15.17-5.22h896.38a24.36,24.36,0,0,1,15.16,5.22Z" transform="translate(-230.89 -66.33)"></path><path id="Path_34394" data-name="Path 34394" class="cls-8" d="M1456.51,881.34H377.4L529.33,737.81h775.25Z" transform="translate(-230.89 -66.33)"></path><path id="Path_34395" data-name="Path 34395" class="cls-5" d="M1443.27,881.34H390.63L538.84,744.05h756.23Z" transform="translate(-230.89 -66.33)"></path><path id="Path_34396" data-name="Path 34396" class="cls-8" d="M243.18,896.94H1588v29.78a13.9,13.9,0,0,1-13.9,13.9h-1317a13.9,13.9,0,0,1-13.91-13.9V896.94Z" transform="translate(-230.89 -66.33)"></path><line id="Line_58" data-name="Line 58" class="cls-28" x1="12.29" y1="846.21" x2="1360.18" y2="846.21"></line><path id="Path_34397" data-name="Path 34397" class="cls-8" d="M1357.06,763.78l77.22,67.64h41.34V826L1357.06,758.4Z" transform="translate(-230.89 -66.33)"></path><path id="Path_34398" data-name="Path 34398" class="cls-29" d="M1356.06,759.65l77.62,68.65h41.57L1389,759.65Z" transform="translate(-230.89 -66.33)"></path><ellipse id="Ellipse_249" data-name="Ellipse 249" class="cls-5" cx="191.93" cy="724.71" rx="32.17" ry="14.01"></ellipse><path id="Path_34399" data-name="Path 34399" class="cls-13" d="M445.35,790c0,4.85-10.09,8.73-22.53,8.73s-22.53-3.88-22.53-8.73,10.08-8.74,22.53-8.74S445.35,785.15,445.35,790Z" transform="translate(-230.89 -66.33)"></path><path id="Path_34400" data-name="Path 34400" class="cls-5" d="M425.49,788c0,1.67-3.48,3-7.77,3s-7.77-1.35-7.77-3,3.48-3,7.77-3S425.49,786.35,425.49,788Z" transform="translate(-230.89 -66.33)"></path><path id="Rectangle_2213" data-name="Rectangle 2213" class="cls-9" d="M586.2,157.47h733A32.76,32.76,0,0,1,1352,190.23h0A32.76,32.76,0,0,1,1319.22,223h-733a32.76,32.76,0,0,1-32.76-32.76h0A32.76,32.76,0,0,1,586.2,157.47Z" transform="translate(-230.89 -66.33)"></path><circle id="Ellipse_250" data-name="Ellipse 250" class="cls-6" cx="199.85" cy="123.76" r="32.93"></circle><circle id="Ellipse_251" data-name="Ellipse 251" class="cls-6" cx="276.62" cy="123.76" r="32.93"></circle><path id="Path_34401" data-name="Path 34401" class="cls-30" d="M1399.74,155.5l10.87,23.26,25.49,3.17-18.76,17.53,4.87,25.23-22.46-12.43-22.49,12.43,4.87-25.23-18.75-17.53,25.48-3.17Z" transform="translate(-230.89 -66.33)"></path><path id="Rectangle_2214" data-name="Rectangle 2214" class="cls-10" d="M586.2,145h733A32.75,32.75,0,0,1,1352,177.75h0a32.76,32.76,0,0,1-32.76,32.76h-733a32.76,32.76,0,0,1-32.76-32.76h0A32.76,32.76,0,0,1,586.2,145Z" transform="translate(-230.89 -66.33)"></path><path id="Path_34402" data-name="Path 34402" class="cls-31" d="M711.19,194.91H644.56a15.62,15.62,0,0,1-15.6-15.6h0a15.6,15.6,0,0,1,15.6-15.6h66.63a15.58,15.58,0,0,1,15.6,15.58v0h0a15.6,15.6,0,0,1-15.6,15.6Z" transform="translate(-230.89 -66.33)"></path><circle id="Ellipse_252" data-name="Ellipse 252" class="cls-10" cx="199.85" cy="112.37" r="32.93"></circle><circle id="Ellipse_253" data-name="Ellipse 253" class="cls-10" cx="276.62" cy="112.37" r="32.93"></circle><path id="Path_34403" data-name="Path 34403" class="cls-32" d="M1399.74,144.11l10.87,23.26,25.49,3.16-18.76,17.54,4.87,25.22-22.46-12.43-22.49,12.43,4.87-25.22-18.75-17.54,25.48-3.16Z" transform="translate(-230.89 -66.33)"></path><path id="Path_34404" data-name="Path 34404" class="cls-13" d="M434.81,158.63,414,179.27l20.84,21,4-4-16.87-17.08,16.87-16.68Z" transform="translate(-230.89 -66.33)"></path><path id="Path_34405" data-name="Path 34405" class="cls-13" d="M504.52,200.31l20.84-20.64-20.84-21-4,4,16.87,17.07-16.87,16.68Z" transform="translate(-230.89 -66.33)"></path><path id="Path_34406" data-name="Path 34406" class="cls-13" d="M619,197.26l-13.28-13.12a16.9,16.9,0,0,0,2.84-9.42A17.4,17.4,0,0,0,579,162.52a16.87,16.87,0,0,0-5,12.08,17.41,17.41,0,0,0,17.36,17.19h.08a17.39,17.39,0,0,0,9.51-2.86L614.19,202ZM603.42,175a11.83,11.83,0,0,1-3.52,8.46,12.17,12.17,0,0,1-8.52,3.49h0a12.22,12.22,0,0,1-12.2-12,11.87,11.87,0,0,1,3.52-8.45A12.19,12.19,0,0,1,603.42,175Z" transform="translate(-230.89 -66.33)"></path><path id="Path_34407" data-name="Path 34407" class="cls-33" d="M1309.47,179.47,1302,187a2.27,2.27,0,0,0,3.18,3.24l0,0,7.47-7.51,7.46,7.51a2.27,2.27,0,0,0,3.19,0l0,0a2.29,2.29,0,0,0,0-3.22l-7.49-7.51,7.49-7.5a2.28,2.28,0,0,0-3.21-3.23l-7.46,7.52-7.47-7.52A2.27,2.27,0,0,0,1302,172Zm4.73,24.27a24.28,24.28,0,1,1,24.14-24.4v.13a24.28,24.28,0,0,1-24.14,24.28Z" transform="translate(-230.89 -66.33)"></path><path id="Path_34408" data-name="Path 34408" class="cls-32" d="M478.93,332c0-29.24-28.14-51.91-58.82-42.36-18.27,5.68-30.29,23.19-30.29,42.32v0h0c0,10.23-3.07,16.92,44.55,102.42C482.2,348.49,478.89,337.23,478.93,332Z" transform="translate(-230.89 -66.33)"></path><path id="Path_34409" data-name="Path 34409" class="cls-5" d="M442.35,351.6a19.73,19.73,0,1,1,13-18.58h0A19.44,19.44,0,0,1,442.35,351.6Z" transform="translate(-230.89 -66.33)"></path><path id="Path_34410" data-name="Path 34410" class="cls-34" d="M1050,528.66" transform="translate(-230.89 -66.33)"></path><path id="Path_34411" data-name="Path 34411" class="cls-26" d="M793,789.63l-17.9,31a9.5,9.5,0,0,0,9.07,13.91h176A9.6,9.6,0,0,0,970,822.12l-11.16-31a10.24,10.24,0,0,0-9.75-6.49H802.1a10.47,10.47,0,0,0-9.08,5Z" transform="translate(-230.89 -66.33)"></path><path id="Path_34412" data-name="Path 34412" class="cls-13" d="M828.64,780.42a15.79,15.79,0,1,1-15.78-15.79h0A15.78,15.78,0,0,1,828.64,780.42Z" transform="translate(-230.89 -66.33)"></path><circle id="Ellipse_254" data-name="Ellipse 254" class="cls-35" cx="581.97" cy="714.09" r="9.49"></circle><path id="Path_34413" data-name="Path 34413" class="cls-36" d="M806.62,778.36,812,764.05a2,2,0,0,1,1.84-1.28H832.7a2,2,0,0,1,2,1.88,1.93,1.93,0,0,1-.57,1.43l-16.95,18.35a5.3,5.3,0,0,1-5.53,1.45l-1.72-.56a5.32,5.32,0,0,1-3.41-6.71,1.25,1.25,0,0,1,.09-.25Z" transform="translate(-230.89 -66.33)"></path><circle id="Ellipse_255" data-name="Ellipse 255" class="cls-13" cx="581.97" cy="714.09" r="3.64"></circle><path id="Path_34414" data-name="Path 34414" class="cls-13" d="M921.13,775.92a15.84,15.84,0,1,0,14.78-10h0A15.57,15.57,0,0,0,921.13,775.92Z" transform="translate(-230.89 -66.33)"></path><path id="Path_34415" data-name="Path 34415" class="cls-35" d="M926.41,780.42a9.5,9.5,0,1,0,9.49-9.5h0A9.49,9.49,0,0,0,926.41,780.42Z" transform="translate(-230.89 -66.33)"></path><path id="Path_34416" data-name="Path 34416" class="cls-36" d="M942.2,778.36l-5.47-14.31a1.94,1.94,0,0,0-1.84-1.28H916.06a1.94,1.94,0,0,0-2,1.87,1.89,1.89,0,0,0,.56,1.44l16.95,18.35a5.32,5.32,0,0,0,5.57,1.44l1.68-.55a5.3,5.3,0,0,0,3.49-6.64,3,3,0,0,0-.11-.32Z" transform="translate(-230.89 -66.33)"></path><circle id="Ellipse_256" data-name="Ellipse 256" class="cls-13" cx="705.02" cy="714.09" r="3.64"></circle><path id="Path_34417" data-name="Path 34417" class="cls-32" d="M771.56,633.71a2.35,2.35,0,0,1-2.19-1.38c-5.36-12.39-14.27-32.58-15.86-35.11-2.4-1.74-20.39-8.15-36.74-13.45a2.34,2.34,0,0,1,0-4.45l29-9.4a2.35,2.35,0,0,1,1.34,0c2.78.75,27.26,7.54,32.53,12.43,4.17,3.88,16.5,29.61,18.94,34.73a2.34,2.34,0,0,1-4.23,2c-5.47-11.55-15.18-30.78-17.9-33.31-3.26-3-19.78-8.36-29.9-11.16l-21.51,7c15,5,30.47,10.54,32.14,12.75,1.94,2.59,14.08,30.58,16.51,36.18a2.33,2.33,0,0,1-1.21,3.06h0A2.34,2.34,0,0,1,771.56,633.71Z" transform="translate(-230.89 -66.33)"></path><path id="Path_34418" data-name="Path 34418" class="cls-37" d="M765.22,621.87l26.41-16.4,203.61,10,4.68,12.77Z" transform="translate(-230.89 -66.33)"></path><path id="Path_34419" data-name="Path 34419" class="cls-32" d="M763.29,622.28,794.1,723.91a7.05,7.05,0,0,0,7,5l170.45-5.3a7,7,0,0,0,6.62-5.39l21.78-90.05Z" transform="translate(-230.89 -66.33)"></path><path id="Path_34420" data-name="Path 34420" class="cls-37" d="M809.12,664.79c11,22.91,35.38,27.53,58.58,26.39C917.48,688.7,961,669.27,990.16,628l-181.31-4.53c-2.68,0-4,17.36-4.13,19.61A44.45,44.45,0,0,0,809.12,664.79Z" transform="translate(-230.89 -66.33)"></path><path id="Path_34421" data-name="Path 34421" class="cls-32" d="M971.09,780a66.46,66.46,0,0,0-9.47-20.87c-2.41-3.3-6.38-5.08-10.44-2.57H810.05c-2.93-1.84-5.82-2.88-7.9-5a10.08,10.08,0,0,1,.36-8.63,161.33,161.33,0,0,1,7.91-17.47l-5.51.46a132.32,132.32,0,0,0-6.8,15.31c-2.09,5.4-2.06,9.76.14,13,2.85,3.5,11.76,5.44,11.76,5.44h7.27v2.94a3.35,3.35,0,0,0,3.39,3.3h2.58a3.34,3.34,0,0,0,3.39-3.29h0v-2.94h93.6v2.94a3.34,3.34,0,0,0,3.38,3.3h2.59a3.34,3.34,0,0,0,3.39-3.29v-3h20.67a7.18,7.18,0,0,1,6.68,2.71,58.52,58.52,0,0,1,8.75,18.54,4,4,0,0,1-.34,3.61c-1.28,1.62-4.51,1.8-5.47,1.87-32.76.7-103.43.32-141.4.1-11.28-.05-19.83-.1-23.9-.1-5.76,0-10.05-1.59-12.07-4.46s-1.88-6.85.16-11.78c4.53-10.84,17.8-43.13,17.8-43.13l-4.35-1.66s-13.28,32.28-17.79,43.07c-3.37,8.06-1.69,13.11.31,16,2.92,4.16,8.59,6.45,15.94,6.45h13.33v2.69a3.45,3.45,0,0,0,3.38,3.55h2.59a3.47,3.47,0,0,0,3.39-3.54h0v-2.29l.66-.71c20.6.13,51.29.31,79.68.31h28.86v2.72a3.45,3.45,0,0,0,3.38,3.52h2.59a3.45,3.45,0,0,0,3.39-3.51v-1.85c9.88-.06,18.25-.17,25-.32a11.79,11.79,0,0,0,9.08-3.74A8.62,8.62,0,0,0,971.09,780Z" transform="translate(-230.89 -66.33)"></path><path id="Path_34422" data-name="Path 34422" class="cls-5" d="M993.08,626.66,972,713.78a5.52,5.52,0,0,1-5.18,4.21l-79.61,2.46q9.26-10,18.36-20.15c.45-.49.6-1.11.32-1.39s-1-.14-1.42.37q-9.81,10.13-19.47,20.45h0a2.85,2.85,0,0,0-.5.79L814.2,722.7q9.84-10.61,19.51-21.36c.48-.52.62-1.16.36-1.45s-1-.11-1.46.42Q822.32,711,812.22,721.74h0a2.7,2.7,0,0,0-.62,1l-6.36.2a5.56,5.56,0,0,1-5.44-3.89l-14-46.24q5.44-5.91,10.68-12a.75.75,0,0,0-.11-1.06.76.76,0,0,0-1,0q-5.24,5.26-10.3,10.68L770,620.87l-2.24.69,29.78,98.21a7.86,7.86,0,0,0,7.5,5.56h.26l161.56-5a7.84,7.84,0,0,0,7.38-6l21.13-87.12Z" transform="translate(-230.89 -66.33)"></path><path id="Path_34423" data-name="Path 34423" class="cls-5" d="M798.33,658.55a9.24,9.24,0,0,0,1.64-1.42,9.91,9.91,0,0,0,1.3-1.73.84.84,0,0,0-1.18-1.13,10.45,10.45,0,0,0-1.64,1.41,9.12,9.12,0,0,0-1.29,1.74.84.84,0,0,0,1.17,1.13Z" transform="translate(-230.89 -66.33)"></path><path id="Path_34424" data-name="Path 34424" class="cls-5" d="M802.68,653.93a.83.83,0,0,0,.56-.27.92.92,0,0,0,.24-.59h0a1.18,1.18,0,0,0-1.22-1.11.85.85,0,0,0-.79.86h0A1.17,1.17,0,0,0,802.68,653.93Z" transform="translate(-230.89 -66.33)"></path><path id="Path_34425" data-name="Path 34425" class="cls-5" d="M822.15,633q7.13-7.25,14.09-14.66h0a1.06,1.06,0,1,0-1.56-1.44h0q-6.9,7.46-13.6,15.08a.77.77,0,0,0,.12,1.07.76.76,0,0,0,1,0Z" transform="translate(-230.89 -66.33)"></path><path id="Path_34426" data-name="Path 34426" class="cls-5" d="M819.7,635.74a.83.83,0,0,0,.57-.27.85.85,0,0,0,.23-.58h0a1.16,1.16,0,0,0-1.2-1.11.88.88,0,0,0-.57.27.92.92,0,0,0-.24.59h0A1.17,1.17,0,0,0,819.7,635.74Z" transform="translate(-230.89 -66.33)"></path><path id="Path_34427" data-name="Path 34427" class="cls-5" d="M817.11,638.52a1,1,0,0,0,.58-.27.94.94,0,0,0,.22-.6h0a1.15,1.15,0,0,0-1.21-1.09.86.86,0,0,0-.8.85h0A1.2,1.2,0,0,0,817.11,638.52Z" transform="translate(-230.89 -66.33)"></path><path id="Path_34428" data-name="Path 34428" class="cls-5" d="M814.52,641.29a.86.86,0,0,0,.81-.86h0a1.19,1.19,0,0,0-1.22-1.1.83.83,0,0,0-.79.86h0A1.16,1.16,0,0,0,814.52,641.29Z" transform="translate(-230.89 -66.33)"></path><path id="Path_34429" data-name="Path 34429" class="cls-5" d="M805.65,650.78a49,49,0,0,0,6.48-6.95.83.83,0,0,0,0-1,.82.82,0,0,0-1.16-.12h0q-1.79,1.57-3.41,3.32a44,44,0,0,0-3.07,3.63.83.83,0,0,0,0,1,.8.8,0,0,0,1.15.12Z" transform="translate(-230.89 -66.33)"></path><path id="Path_34430" data-name="Path 34430" class="cls-5" d="M835.54,697.52c.18.47.86.44,1.5-.08a32.82,32.82,0,0,0,5.33-5.71,1.41,1.41,0,0,0,.29-1.2c-.19-.47-.87-.44-1.51.08a29.92,29.92,0,0,0-2.83,2.69,31.17,31.17,0,0,0-2.5,3A1.43,1.43,0,0,0,835.54,697.52Z" transform="translate(-230.89 -66.33)"></path><path id="Path_34431" data-name="Path 34431" class="cls-5" d="M844.91,689a2.54,2.54,0,0,0,.89-.63,2.23,2.23,0,0,0,.55-1h0c.21-.89-.34-1.39-1.22-1.09a2.49,2.49,0,0,0-1.45,1.56h0C843.47,688.81,844,689.29,844.91,689Z" transform="translate(-230.89 -66.33)"></path><path id="Path_34432" data-name="Path 34432" class="cls-5" d="M880.18,651.13q12.77-13.29,25.34-26.72h0c.7-.77,1-1.71.5-2.11s-1.36-.09-2.08.67q-12.5,13.49-24.87,27.15c-.47.52-.64,1.16-.36,1.46S879.67,651.66,880.18,651.13Z" transform="translate(-230.89 -66.33)"></path><path id="Path_34433" data-name="Path 34433" class="cls-5" d="M875.71,656a2.51,2.51,0,0,0,.89-.62,2.35,2.35,0,0,0,.55-1h0c.21-.89-.34-1.38-1.22-1.09a2.51,2.51,0,0,0-.89.62,2.35,2.35,0,0,0-.55,1h0C874.28,655.84,874.83,656.33,875.71,656Z" transform="translate(-230.89 -66.33)"></path><path id="Path_34434" data-name="Path 34434" class="cls-5" d="M871,661.06a2.55,2.55,0,0,0,.9-.62,2.6,2.6,0,0,0,.55-1h0c.21-.89-.34-1.38-1.22-1.09a2.6,2.6,0,0,0-1.45,1.56h0C869.59,660.87,870.13,661.35,871,661.06Z" transform="translate(-230.89 -66.33)"></path><path id="Path_34435" data-name="Path 34435" class="cls-5" d="M866.34,666.09a2.31,2.31,0,0,0,.89-.62,2.35,2.35,0,0,0,.55-1h0c.22-.89-.34-1.38-1.22-1.09a2.6,2.6,0,0,0-1.45,1.56h0C864.91,665.89,865.49,666.38,866.34,666.09Z" transform="translate(-230.89 -66.33)"></path><path id="Path_34436" data-name="Path 34436" class="cls-5" d="M850.27,683.33c2.1-1.94,4.06-4.06,6-6.14s3.88-4.23,5.7-6.45a1.36,1.36,0,0,0,.35-1.45c-.23-.32-1-.24-1.56.32-2.1,1.94-4.06,4-6,6.13s-3.88,4.23-5.7,6.45c-.42.52-.58,1.12-.35,1.44S849.67,683.88,850.27,683.33Z" transform="translate(-230.89 -66.33)"></path><path id="Path_34437" data-name="Path 34437" class="cls-5" d="M908.75,696.57a30.17,30.17,0,0,0,5.08-5.45,1.31,1.31,0,0,0,.26-1.17c-.19-.46-.85-.45-1.47,0a28.71,28.71,0,0,0-5.08,5.47,1.34,1.34,0,0,0-.26,1.17C907.47,697.07,908.13,697.05,908.75,696.57Z" transform="translate(-230.89 -66.33)"></path><path id="Path_34438" data-name="Path 34438" class="cls-5" d="M916.26,688.52a2.41,2.41,0,0,0,.86-.59,2.2,2.2,0,0,0,.52-.9h0c.19-.87-.36-1.36-1.22-1.1a2.33,2.33,0,0,0-1.38,1.48h0C914.85,688.3,915.4,688.78,916.26,688.52Z" transform="translate(-230.89 -66.33)"></path><path id="Path_34439" data-name="Path 34439" class="cls-5" d="M950,652.35q12.16-12.69,24.2-25.5h0c.68-.73.88-1.65.44-2s-1.33-.13-2,.6q-12,12.89-23.74,25.92c-.45.5-.59,1.13-.31,1.41S949.45,652.86,950,652.35Z" transform="translate(-230.89 -66.33)"></path><path id="Path_34440" data-name="Path 34440" class="cls-5" d="M945.67,657a2.19,2.19,0,0,0,.86-.58,2.26,2.26,0,0,0,.52-.9h0c.18-.87-.37-1.35-1.22-1.09a2.26,2.26,0,0,0-1.38,1.48h0C944.26,656.81,944.8,657.3,945.67,657Z" transform="translate(-230.89 -66.33)"></path><path id="Path_34441" data-name="Path 34441" class="cls-5" d="M941.23,661.84a2.41,2.41,0,0,0,.86-.59,2.18,2.18,0,0,0,.51-.9h0c.19-.86-.35-1.35-1.21-1.08a2.3,2.3,0,0,0-1.39,1.48h0C939.79,661.62,940.34,662.11,941.23,661.84Z" transform="translate(-230.89 -66.33)"></path><path id="Path_34442" data-name="Path 34442" class="cls-5" d="M936.72,666.64a2.34,2.34,0,0,0,1.39-1.49h0c.18-.86-.37-1.35-1.22-1.09a2.36,2.36,0,0,0-.87.59,2.18,2.18,0,0,0-.51.9h0C935.32,666.41,935.86,666.9,936.72,666.64Z" transform="translate(-230.89 -66.33)"></path><path id="Path_34443" data-name="Path 34443" class="cls-5" d="M921.38,683.09c2-1.87,3.88-3.88,5.82-5.82a77.66,77.66,0,0,0,5.43-6.18c.4-.49.55-1.07.31-1.4s-1-.26-1.52.28c-2,1.87-3.89,3.88-5.77,5.82s-3.71,4-5.44,6.18c-.4.49-.54,1.08-.31,1.39S920.84,683.63,921.38,683.09Z" transform="translate(-230.89 -66.33)"></path><path id="Path_34444" data-name="Path 34444" class="cls-37" d="M827.4,787.73l7.94-28.08h84.14l4.58,28.08Z" transform="translate(-230.89 -66.33)"></path><circle id="Ellipse_257" data-name="Ellipse 257" class="cls-13" cx="571.42" cy="749.58" r="18.56"></circle><path id="Path_34445" data-name="Path 34445" class="cls-35" d="M813.46,815.9a11.16,11.16,0,1,1-11.15-11.15,11.16,11.16,0,0,1,11.15,11.15Z" transform="translate(-230.89 -66.33)"></path><path id="Path_34446" data-name="Path 34446" class="cls-36" d="M795,815.37l6.36-16.78a2.31,2.31,0,0,1,2.16-1.5h22.12a2.31,2.31,0,0,1,2.31,2.31,2.35,2.35,0,0,1-.61,1.58l-19.93,21.51a6.27,6.27,0,0,1-6.52,1.69l-1.89-.62a6.45,6.45,0,0,1-4.23-7.49,5.73,5.73,0,0,1,.23-.7Z" transform="translate(-230.89 -66.33)"></path><path id="Path_34447" data-name="Path 34447" class="cls-13" d="M806.58,815.9a4.28,4.28,0,1,1-4.28-4.27,4.27,4.27,0,0,1,4.28,4.27Z" transform="translate(-230.89 -66.33)"></path><circle id="Ellipse_258" data-name="Ellipse 258" class="cls-13" cx="713.15" cy="749.58" r="18.56"></circle><path id="Path_34448" data-name="Path 34448" class="cls-35" d="M933.73,810.08a11.23,11.23,0,0,0,12.92,15.28,11.17,11.17,0,0,0-2.6-22h0A11,11,0,0,0,933.73,810.08Z" transform="translate(-230.89 -66.33)"></path><path id="Path_34449" data-name="Path 34449" class="cls-36" d="M951.77,812.7l-6.53-17.23a2.31,2.31,0,0,0-2.16-1.5H920.36a2.38,2.38,0,0,0-2.37,2.37,2.33,2.33,0,0,0,.63,1.61L939,820a6.43,6.43,0,0,0,6.7,1.73l2-.67a6.39,6.39,0,0,0,4.16-8,3.19,3.19,0,0,0-.11-.33Z" transform="translate(-230.89 -66.33)"></path><path id="Path_34450" data-name="Path 34450" class="cls-13" d="M939.77,815.9a4.27,4.27,0,1,0,4.27-4.27,4.26,4.26,0,0,0-4.27,4.27Z" transform="translate(-230.89 -66.33)"></path><path id="Path_34452" data-name="Path 34452" class="cls-38" d="M823.52,588.33v33l78,2V585Z" transform="translate(-230.89 -66.33)"></path><path id="Path_34453" data-name="Path 34453" class="cls-39" d="M901.52,584.81v38.72L939,624.74V591.58Z" transform="translate(-230.89 -66.33)"></path><path id="Path_34454" data-name="Path 34454" class="cls-22" d="M823.52,582.11l81.12-3.31v10.61l-81.12,3.39Z" transform="translate(-230.89 -66.33)"></path><path id="Path_34455" data-name="Path 34455" class="cls-38" d="M904.64,589.42l37.44,6.41v-10l-37.44-7Z" transform="translate(-230.89 -66.33)"></path><ellipse id="Ellipse_260" data-name="Ellipse 260" class="cls-26" cx="413.24" cy="749.27" rx="112.94" ry="6.5"></ellipse><path id="Path_34456" data-name="Path 34456" class="cls-34" d="M698.66,741.08c1.83,18.15,17.09,44.66,23,59.52,1.74,4.37,10,1.94,9.07-2.68-3.19-15.69-5.37-47.46-6.8-63.67C722.21,715.13,696.92,723.75,698.66,741.08Z" transform="translate(-230.89 -66.33)"></path><path id="Path_34457" data-name="Path 34457" class="cls-40" d="M721.9,800.5a16.84,16.84,0,0,0,1.24,11.71c-.54.24-.13,2.49.85,2.91a23.51,23.51,0,0,0,11.23-.91,1.79,1.79,0,0,0-.06-1.5,17.13,17.13,0,0,0,8.05-.33,30.32,30.32,0,0,0,11.47-4.31c.7-.45.21-2-.57-1.78,0,0-.52-4.12-4-3.88a26,26,0,0,1-15.79-4.62,14,14,0,0,0-4.71-2A8.08,8.08,0,0,0,721.9,800.5Z" transform="translate(-230.89 -66.33)"></path><g class="cls-41"><path id="Path_34458" data-name="Path 34458" class="cls-40" d="M723.14,812.21a66.45,66.45,0,0,0,12.05-.19s13.59-.24,18.91-5.69a6.37,6.37,0,0,1,9-.71,6.75,6.75,0,0,1,1,1.07l-22.22,17.68-14.5-1.12-6.52-5.47S720.33,811.88,723.14,812.21Z" transform="translate(-230.89 -66.33)"></path><path id="Path_34459" data-name="Path 34459" class="cls-40" d="M720.83,800.9a5.6,5.6,0,0,0,5.93,2.54c4-.84,4.4-3.3,3.49-7.57S716.64,794.42,720.83,800.9Z" transform="translate(-230.89 -66.33)"></path></g><path id="Path_34461" data-name="Path 34461" class="cls-19" d="M639.27,611.12s26.09,46.94,34.71,66.13,19.53,66.56,19.53,66.56,21.46,4.52,32.7-5.55c0,0-3.6-50-9.71-72.44s-29.39-77.56-29.39-77.56C677.76,568.48,629.93,591.33,639.27,611.12Z" transform="translate(-230.89 -66.33)"></path><path id="Path_34462" data-name="Path 34462" class="cls-40" d="M660.63,647.87A89.18,89.18,0,0,1,668,630.05c4.59-8,15.7-14.37,16.92-13.39,2.1,1.69-14.47,14-17.68,22.89,0,0,18.44-13.42,19.73-11.65S667.88,640.6,660.63,647.87Z" transform="translate(-230.89 -66.33)"></path><path id="Path_34463" data-name="Path 34463" class="cls-6" d="M657.87,495.43c4.3,19.84,11,46.28,25.71,59.23s46.71,20.07,48.23,20.07c3.56.81,7.38-18,4.55-20.15s-28-12.33-32.45-16.63c-8-7.7-4.58-54.57-13.59-64.8S652.86,472.29,657.87,495.43Z" transform="translate(-230.89 -66.33)"></path><path id="Path_34464" data-name="Path 34464" class="cls-42" d="M738.25,557.92s11.21,9.32,11.87,11.86a12.25,12.25,0,0,1-.51,7.77c-.92,1.05-7.77,4.49-10.38,2.7a45.75,45.75,0,0,1-6.23-5.9l1.25-4.58s-.84,3.13-7.63-1.12S731.8,551.48,738.25,557.92Z" transform="translate(-230.89 -66.33)"></path><path id="Path_34465" data-name="Path 34465" class="cls-34" d="M582,727.56c-13.53,12.25-25.83,40.3-34.23,53.87-2.47,4,4.4,9.19,7.55,5.71,10.68-11.89,34.95-32.52,47.17-43.31C616.87,731.11,594.91,715.9,582,727.56Z" transform="translate(-230.89 -66.33)"></path><path id="Path_34466" data-name="Path 34466" class="cls-40" d="M549.34,780.06a16.82,16.82,0,0,0-9.14,7.42c-.5-.31-2.15,1.25-2,2.32a23.49,23.49,0,0,0,6.89,8.93,1.79,1.79,0,0,0,1.22-.87,17.2,17.2,0,0,0,4.68,6.56,30.56,30.56,0,0,0,9.86,7.26c.75.34,1.82-1,1.18-1.46,0,0,3.18-2.68,1.11-5.46A26,26,0,0,1,558.39,789a13.06,13.06,0,0,0-.86-5.06A8,8,0,0,0,549.34,780.06Z" transform="translate(-230.89 -66.33)"></path><g class="cls-43"><path id="Path_34467" data-name="Path 34467" class="cls-40" d="M540.24,787.48a66,66,0,0,0,6.72,10s7.59,11.23,15.08,12.75a6.3,6.3,0,0,1,5.47,7,6.4,6.4,0,0,1-.38,1.49l-26.89-9-7-12.79,1.05-8.42S538.94,785,540.24,787.48Z" transform="translate(-230.89 -66.33)"></path><path id="Path_34468" data-name="Path 34468" class="cls-40" d="M548.42,779.39a5.61,5.61,0,0,0,1.1,6.36c2.92,2.92,5.16,1.94,8.25-1.19S551.56,772.34,548.42,779.39Z" transform="translate(-230.89 -66.33)"></path></g><path id="Path_34470" data-name="Path 34470" class="cls-40" d="M611.64,593.5s3.62,68.82-4.11,86.86-27.79,47.36-27.79,47.36a30.87,30.87,0,0,0,25.85,19.53s30.7-21.62,42.72-54.37,22.14-68.78,17.27-95.48C662.86,582.44,615.51,571.58,611.64,593.5Z" transform="translate(-230.89 -66.33)"></path><path id="Path_34471" data-name="Path 34471" class="cls-44" d="M620.61,592.88s.44,57.28-2.23,79.49c-2.61,21.53-35.68,61.16-35.68,61.16" transform="translate(-230.89 -66.33)"></path><path id="Path_34472" data-name="Path 34472" class="cls-5" d="M688.69,474.67c5.3,10.54-4.16,50.59-4.16,68.08a284.8,284.8,0,0,0,4.45,47,5.58,5.58,0,0,1-2.62,6.1,68.45,68.45,0,0,1-25.81,8c-25.9,2.49-38.42-2.05-44.31-4.28a7.2,7.2,0,0,1-4.58-7.77c1.31-8.73,5-30.15,1.85-49.84-4.14-25.76-10.89-60.8,1.2-71.61s34.71-17.62,34.71-17.62S682.15,461.64,688.69,474.67Z" transform="translate(-230.89 -66.33)"></path><path id="Path_34473" data-name="Path 34473" class="cls-35" d="M654.89,441.78s-5.82-1-13.78-10.86c-5.23-6.5-12.48-35.87,10.55-40.31s29.82,11.12,30.89,21.36S672.17,430.54,667,434.21,654.89,441.78,654.89,441.78Z" transform="translate(-230.89 -66.33)"></path><path id="Path_34474" data-name="Path 34474" class="cls-34" d="M649.28,430A67.53,67.53,0,0,1,646,445.79a25.62,25.62,0,0,1-8.73,12c-3.3,2.94,13.21,20.53,27.95,25,0,0,10.68-13,5.82-20.28s-8.73-7.89-7-17.58c1.54-8.45,2.45-13.14,2.45-13.14Z" transform="translate(-230.89 -66.33)"></path><path id="Path_34475" data-name="Path 34475" class="cls-45" d="M649.28,430s-.74,6.57,1.94,9.39,7.4,9.63,18.22,8.84c14.45-1.06,8.84-24,8.84-24a51,51,0,0,0,0-16.07c-1.52-7.25-15.82-11-27.46-7.49,0,0-3.34,3.19-2.06,17.43a4.38,4.38,0,0,0-5.54-.75,6.45,6.45,0,0,0-1.94,7.83C642.26,428.88,646.16,432.11,649.28,430Z" transform="translate(-230.89 -66.33)"></path><path id="Path_34476" data-name="Path 34476" class="cls-46" d="M648.08,428.58l-1.28-3.39,2.17-.89s-1.41-6.33-4.93-4C641.13,422.22,644.45,429.86,648.08,428.58Z" transform="translate(-230.89 -66.33)"></path><path id="Path_34477" data-name="Path 34477" class="cls-35" d="M649.61,423.59a89.4,89.4,0,0,0-1.21,12.86c.21,4,4.14,16.32,22.22,15.22s11.55-20.57,8.5-21.91a5.43,5.43,0,0,1-1.8,4.31,4.8,4.8,0,0,0-5.82-2.5,8.52,8.52,0,0,0-8.63,1.29l-2.24,1.56a11.42,11.42,0,0,1-9.19-10.61Z" transform="translate(-230.89 -66.33)"></path><path id="Path_34478" data-name="Path 34478" class="cls-5" d="M665.17,434.72a50.92,50.92,0,0,1,9.71.64c.2.64-1.13,1.94-4.86,1.94A5.06,5.06,0,0,1,665.17,434.72Z" transform="translate(-230.89 -66.33)"></path><path id="Path_34479" data-name="Path 34479" class="cls-46" d="M664.37,435.3a.4.4,0,0,1,.22-.14H666l1.33.06,2.66.13c.89,0,1.77.08,2.67.17.44,0,.89.11,1.32.19a2.06,2.06,0,0,1,.35.12.48.48,0,0,1,.21.19.81.81,0,0,1,0,.22,1.11,1.11,0,0,1-.34.68,4.94,4.94,0,0,1-2.5,1.08,12.77,12.77,0,0,1-2.69.18,6.1,6.1,0,0,1-2.64-.69,5,5,0,0,1-1.15-.8c-.16-.16-.32-.34-.47-.52a3.06,3.06,0,0,1-.21-.29l-.1-.15v-.08h0v-.11A.4.4,0,0,1,664.37,435.3Zm0-.24a.35.35,0,0,0,.06-.19v-.09h0v.06l.08.14c0,.08.1.17.16.26l.39.47a4.86,4.86,0,0,0,1,.79,5.8,5.8,0,0,0,2.43.72,11.41,11.41,0,0,0,2.61-.13,4.64,4.64,0,0,0,2.33-1,.77.77,0,0,0,.26-.46v-.11h0l-.28-.09a11.43,11.43,0,0,0-1.31-.16c-.87-.08-1.75-.13-2.64-.14h-5.21a.3.3,0,0,0,.2-.1Z" transform="translate(-230.89 -66.33)"></path><path id="Path_34480" data-name="Path 34480" class="cls-35" d="M666.46,423c-.06.8-1.11.86-2.4.75s-2.32-.34-2.25-1.14,1.17-1.37,2.45-1.25S666.46,422.19,666.46,423Z" transform="translate(-230.89 -66.33)"></path><path id="Path_34481" data-name="Path 34481" class="cls-35" d="M657.9,419.16a47.64,47.64,0,0,1,4.86-1.15,28.37,28.37,0,0,0,6,.29,6.42,6.42,0,0,0,.66-1.95,48.92,48.92,0,0,0-7.26-.27A8.49,8.49,0,0,0,657.9,419.16Z" transform="translate(-230.89 -66.33)"></path><path id="Path_34482" data-name="Path 34482" class="cls-35" d="M678.19,424c-.07.79-1.13.85-2.41.75s-2.31-.34-2.25-1.15,1.16-1.36,2.45-1.25S678.25,423.17,678.19,424Z" transform="translate(-230.89 -66.33)"></path><path id="Path_34483" data-name="Path 34483" class="cls-35" d="M679.83,421c0,.12-1.59-1.94-2.39-2.06s-4.63.17-4.85-.31a8.46,8.46,0,0,1-.19-1.94,32.14,32.14,0,0,1,5.93.87A5.46,5.46,0,0,1,679.83,421Z" transform="translate(-230.89 -66.33)"></path><path id="Path_34484" data-name="Path 34484" class="cls-47" d="M671.56,430.83s-3-.1-2.91-.91,6.28-1.71,6.62-1.13S672.9,430.45,671.56,430.83Z" transform="translate(-230.89 -66.33)"></path><path id="Path_34485" data-name="Path 34485" class="cls-46" d="M672.07,418.48a15.13,15.13,0,0,0-.42,5.06c.45,1.34,3.18,4.37,3.23,5s-3.08,2.18-3.31,2.29,4.47-.62,4.34-2.1-3.65-5.13-3.77-5.82S672.07,418.48,672.07,418.48Z" transform="translate(-230.89 -66.33)"></path><path id="Path_34486" data-name="Path 34486" class="cls-35" d="M650.92,424.64a14,14,0,0,0,.83-11.17,6.43,6.43,0,0,1,4.07-8.14c.23-.07.47-.14.7-.19,2.92-.31,12.51,2.39,16.28,1.94,8.28-1,14.7-3.46,14.69-5s-6.07.06-6.07.06,9.23-2.36,8.39-10.08a37.71,37.71,0,0,1-13.14-1.62c-6.19-2.12-21-4.58-28.93,1.28-5.17,3.84-8.84,16.34-2,22.7C648.84,417.32,649.14,425.82,650.92,424.64Z" transform="translate(-230.89 -66.33)"></path><path id="Path_34487" data-name="Path 34487" class="cls-48" d="M672.44,474.83s-3.94,78.38-3.08,85.76-.56,35.7,17.33,41.16c0,0-8-40.9-6.86-65.46S672.44,474.83,672.44,474.83Z" transform="translate(-230.89 -66.33)"></path><path id="Path_34488" data-name="Path 34488" class="cls-9" d="M666.72,457.09A200.07,200.07,0,0,1,674,513.64c-.43,32-1.73,97.63,22,96.12,0,0-10-40.32-9.36-55s8.53-68.48,5.61-77.68C688,463.71,666.72,457.09,666.72,457.09Z" transform="translate(-230.89 -66.33)"></path><path id="Path_34489" data-name="Path 34489" class="cls-9" d="M639.54,455.94s16,25,21.08,67.32c2.45,20.18-.29,52.17-3.34,72.6-3.5,23.51-49.51,23.47-52.48,17.31S615,568,610.92,545.77s-6.53-58.42-1.63-70.34S639.54,455.94,639.54,455.94Z" transform="translate(-230.89 -66.33)"></path><path id="Path_34490" data-name="Path 34490" class="cls-49" d="M616.46,498.35s7.83,37.78,6.79,57.78-7.38,60.4-7.38,60.4" transform="translate(-230.89 -66.33)"></path><path id="Path_34491" data-name="Path 34491" class="cls-9" d="M610.94,478.45a37.58,37.58,0,0,0-2.08,9.89c4.31,32.94,22.85,69.89,51.32,83.13a313.58,313.58,0,0,0,1.35-32.14c-19.07-19-33.66-43.68-44.82-68a19.38,19.38,0,0,0-5.77,7.15Z" transform="translate(-230.89 -66.33)"></path><path id="Path_34492" data-name="Path 34492" class="cls-42" d="M722.42,564.49s14.19,3.32,15.91,5.3a24.25,24.25,0,0,1,4.29,10.08c-.34,1.34-7.85,4.32-11,3.88a24.11,24.11,0,0,1-6.55-2.21c.47-1.67.34-3.18-1.4-3.71s-3.8.42-7,1.87C709.36,583,713.78,561.61,722.42,564.49Z" transform="translate(-230.89 -66.33)"></path><path id="Path_34493" data-name="Path 34493" class="cls-6" d="M608.65,495.81c3.82,21.15,30.86,52.68,42.43,62.62,10.14,8.73,60.2,23.46,62.44,23.58,5.14,1.1,11.66-17.38,7.68-19.77s-48.63-22.92-53.46-28.3-22.58-53.13-35.17-64S604.32,472,608.65,495.81Z" transform="translate(-230.89 -66.33)"></path><ellipse id="Ellipse_261" data-name="Ellipse 261" class="cls-26" cx="941.48" cy="746.99" rx="112.94" ry="6.5"></ellipse><path id="Path_34494" data-name="Path 34494" class="cls-40" d="M1191.69,787.88a63.41,63.41,0,0,1,5.48,5.27c.78,1.16,3.79,9.71,3.79,9.71a7.29,7.29,0,0,1-4.71,3.25l-3.81-4.86a49.19,49.19,0,0,1-3.88,11.32c-2.37,3.35-16,7.22-18,6.2a6,6,0,0,1,1.75-7.71c7.88-5,8.07-15.63,8.07-15.63a7.4,7.4,0,0,1,11.31-7.55Z" transform="translate(-230.89 -66.33)"></path><g class="cls-50"><path id="Path_34495" data-name="Path 34495" class="cls-40" d="M1170.41,818c.24-.12,17.4-2.43,19.42-7.5,1.58-4,2.64-10.68,3.56-11.42s5.24-5.9,5.24-5.9l6.86,12-25.83,21.74Z" transform="translate(-230.89 -66.33)"></path></g><path id="Path_34497" data-name="Path 34497" class="cls-40" d="M1178.64,806.55l2.34.51a8,8,0,0,0,1.52-4.34l-2.29-.81a.81.81,0,0,0-1,.49l-1.14,3.1a.81.81,0,0,0,.49,1l.11,0Z" transform="translate(-230.89 -66.33)"></path><path id="Path_34498" data-name="Path 34498" class="cls-34" d="M1163,551.14c-.06-.83-21.78,95.92-21,121.93.48,16.23,30.77,90.8,39.8,122.34,1.73,6,11.14-1,10.4-7.33-3.54-30.17-3.32-46-16.64-111.6-2.07-10.2,34.57-101.72,31.67-123.16S1174.46,520.18,1163,551.14Z" transform="translate(-230.89 -66.33)"></path><path id="Path_34499" data-name="Path 34499" class="cls-51" d="M1207.25,553.29c-2.91-21.45-32.8-33.11-44.25-2.15,0-.78-19.72,86.74-21,117.65,9.78-7.42,22.78-3.5,34,2.4C1180.37,648.84,1209.88,572.61,1207.25,553.29Z" transform="translate(-230.89 -66.33)"></path><path id="Path_34500" data-name="Path 34500" class="cls-40" d="M1224.39,794a65.16,65.16,0,0,1,3.24,6.87c.33,1.37.11,10.39.11,10.39a7.25,7.25,0,0,1-5.57,1.37l-1.81-5.91a24.28,24.28,0,0,1-5.61,7.67c-3.41,2.29-15.54,5.1-17.6,4.1,0,0-2.8-5.42,1.7-7.76,11.28-5.83,12.28-13.79,12.28-13.79A7.42,7.42,0,0,1,1224.4,794Z" transform="translate(-230.89 -66.33)"></path><g class="cls-52"><path id="Path_34501" data-name="Path 34501" class="cls-40" d="M1195.76,818.12c.27,0,14.15-1.35,17.47-4s6.24-9,7.39-9.41,7-3.65,7-3.65l2.17,13.59-31.89,11.14Z" transform="translate(-230.89 -66.33)"></path></g><path id="Path_34503" data-name="Path 34503" class="cls-40" d="M1204.72,807.29l2,1.3a7.73,7.73,0,0,0,2.91-3.51l-1.85-1.56a.8.8,0,0,0-1.13.08l-2.15,2.5a.8.8,0,0,0,.1,1.13l.1.07Z" transform="translate(-230.89 -66.33)"></path><path id="Path_34504" data-name="Path 34504" class="cls-34" d="M1184.47,557.38c-.18,8.43,1.12,98.24,8.9,122.83,4.85,15.32,15,88.86,18.45,114,1.24,9.16,11.2,9.16,11.93.41,2.68-32.54,13.2-77.79,1.25-117.56-3-9.93,10.84-112.48,2.27-132S1185.1,526.23,1184.47,557.38Z" transform="translate(-230.89 -66.33)"></path><path id="Path_34505" data-name="Path 34505" class="cls-51" d="M1224.61,670.39c.27-25.37,10.29-108,2.69-125.36-8.56-19.53-42.2-18.8-42.83,12.35-.16,7.76,1,84.47,7.17,115.76A43.34,43.34,0,0,1,1224.61,670.39Z" transform="translate(-230.89 -66.33)"></path><path id="Path_34506" data-name="Path 34506" class="cls-40" d="M1164,540.61l-1,8.83s-15.79,40-22.6,105.06c16.85-4.68,48.68,10.89,95.87,4.27,0,0,18.67-83.25-13.81-120.3S1165.69,521,1164,540.61Z" transform="translate(-230.89 -66.33)"></path><path id="Path_34507" data-name="Path 34507" class="cls-19" d="M1164,549.09s-1.25,12.49,20.32,14.67,43-13.39,42.43-18S1164,549.09,1164,549.09Z" transform="translate(-230.89 -66.33)"></path><path id="Path_34508" data-name="Path 34508" class="cls-53" d="M1217.27,542.92s24.7,41.1,9.51,114.42" transform="translate(-230.89 -66.33)"></path><path id="Path_34509" data-name="Path 34509" class="cls-34" d="M1076.18,517.1a88.5,88.5,0,0,0-10.68-.13,58.05,58.05,0,0,0-6.16,2.7c-2.47,1.25-.06,3,1.81,2.86a31.41,31.41,0,0,1,4.74-.54,8.84,8.84,0,0,1,1.61.41,37.92,37.92,0,0,1-8.17,4.86c-1.76.68-3.35,1.14-5.89,1.94-1.14.36-1,1.85.34,2.09a15.59,15.59,0,0,0,6.8-.86c1.09-.42,2.2-.87,3.21-1.34a23.23,23.23,0,0,1-3.49,2c-1.67.76-3.36,1.07-5.83,1.94-1.12.41-.81,1.71.49,1.94a11.29,11.29,0,0,0,1.84.1,1.06,1.06,0,0,0,.9,1.66,12.16,12.16,0,0,0,2.76-.23,1.09,1.09,0,0,0,1,.63c9.11,0,14.57-4.94,19.53-6.11C1089,523.05,1082.12,518.23,1076.18,517.1Z" transform="translate(-230.89 -66.33)"></path><path id="Path_34510" data-name="Path 34510" class="cls-6" d="M1182.1,452.21c-6.19-3.5-16.75-4.66-25.08,7.2s-12,39.76-20.82,49.19c-5.26,5.62-53,7.27-56.45,9-2.21,1.12-.89,11.75-.17,13.73,1.52,4.14,53.26,6.34,67.33.8S1195.39,459.76,1182.1,452.21Z" transform="translate(-230.89 -66.33)"></path><path id="Path_34511" data-name="Path 34511" class="cls-35" d="M1162.1,399.39c.37-4.32.36-11.51,5.51-17.75s25.25-12.48,35.8-5.21c12.95,9,8.74,17.37,24.87,23.89s11.27,13.73,6.66,21.11-3,8.61,4.46,16.34,17.37,27,0,38-55,3.79-70-10.68,2.72-24.08-1.46-32.74-9.1-6.8-9.1-16C1158.8,409.32,1161.51,406.11,1162.1,399.39Z" transform="translate(-230.89 -66.33)"></path><path id="Path_34512" data-name="Path 34512" class="cls-9" d="M1194.68,441.92s-34.26,5.71-35.4,16.16c-.48,4.37,5.49,13.22,3.94,17.71-2.25,6.56-5.82,10.36.79,25.95,5.35,12.62-3.89,38.64-3.56,41.75,1,11.6,19.42,13.73,27,13.54,10.75-.26,41.67-7.17,41.67-13.95,0-5.83-14.32-18.45-15.71-28.57s24.81-50.4,19.61-59.22C1222.94,438.3,1194.68,441.92,1194.68,441.92Z" transform="translate(-230.89 -66.33)"></path><path id="Path_34513" data-name="Path 34513" class="cls-34" d="M1227.54,549.93a75.94,75.94,0,0,0-10.19,3.15,56.05,56.05,0,0,0-5,4.45c-1.94,1.94.87,2.91,2.6,2.17a27.63,27.63,0,0,1,4.34-1.94,8.43,8.43,0,0,1,1.66-.11,36.92,36.92,0,0,1-6.29,7.15c-1.46,1.19-2.83,2.12-5,3.67-1,.69-.34,2.06,1,1.9a15.58,15.58,0,0,0,6.21-2.92c.92-.72,1.83-1.5,2.64-2.25a23.05,23.05,0,0,1-2.7,3c-1.36,1.25-2.86,2-4.86,3.64-1,.73-.25,1.87,1,1.66a16.27,16.27,0,0,0,1.79-.47c-.26.7.34,1.48,1.37,1.3a12.6,12.6,0,0,0,2.55-1.06,1.14,1.14,0,0,0,1.12.31c5.4-1.24,14.63-9,16.73-11.78C1241.55,551.69,1233.54,549.2,1227.54,549.93Z" transform="translate(-230.89 -66.33)"></path><path id="Path_34514" data-name="Path 34514" class="cls-6" d="M1220.07,446.89c-5.53,4.48-10.48,13.88-2.49,26s30.71,24.67,36.25,36.34c3.31,7-27.4,36.82-27.46,40.63s5.83,13.08,8,14.15c4,1.94,47.1-39.93,47.1-55.07S1232,437.29,1220.07,446.89Z" transform="translate(-230.89 -66.33)"></path><path id="Path_34515" data-name="Path 34515" class="cls-34" d="M1199.9,415.49a67.4,67.4,0,0,0,3.33,15.84,25.52,25.52,0,0,0,8.74,12c3.3,3-13.24,20.53-28,25,0,0-10.68-13-5.83-20.28s8.74-7.9,7-17.59c-1.52-8.44-2.43-13.12-2.43-13.12Z" transform="translate(-230.89 -66.33)"></path><path id="Path_34516" data-name="Path 34516" class="cls-5" d="M1177.15,420c0,4.16-1.71,7.55-3.81,7.55s-3.81-3.39-3.81-7.55a10.25,10.25,0,0,1,1.94-6.56c.36-.46-.09-.81-.45-.35A10.74,10.74,0,0,0,1169,420c0,4.55,1.94,8.11,4.37,8.11s4.38-3.56,4.38-8.11a10.92,10.92,0,0,0-1.22-5.67c-.1.1-.33.29-.44.41A11.54,11.54,0,0,1,1177.15,420Z" transform="translate(-230.89 -66.33)"></path><path id="Path_34517" data-name="Path 34517" class="cls-45" d="M1199.9,415.49s-2.39,18.1-19.42,16.82c-8.54-.64-12.9-18.17-9.57-22.57a51,51,0,0,1,0-16.07c1.5-7.24,15.82-11,27.46-7.48,0,0,3.35,3.18,2.07,17.42a4.32,4.32,0,0,1,5.52-.74,6.42,6.42,0,0,1,1.94,7.82C1206.92,414.42,1203,417.64,1199.9,415.49Z" transform="translate(-230.89 -66.33)"></path><path id="Path_34518" data-name="Path 34518" class="cls-46" d="M1201.11,414.12l1.27-3.39-2.18-.9s1.41-6.32,4.94-4C1208,407.75,1204.73,415.4,1201.11,414.12Z" transform="translate(-230.89 -66.33)"></path><path id="Path_34519" data-name="Path 34519" class="cls-5" d="M1206.53,420c0,4.16-1.71,7.55-3.82,7.55s-3.81-3.39-3.81-7.55a10.26,10.26,0,0,1,1.95-6.56c.35-.46-.1-.81-.46-.35a10.8,10.8,0,0,0-2.07,6.9c0,4.55,1.94,8.11,4.37,8.11s4.39-3.56,4.39-8.11a11.12,11.12,0,0,0-1.22-5.67c-.1.1-.33.29-.44.41A11.81,11.81,0,0,1,1206.53,420Z" transform="translate(-230.89 -66.33)"></path><path id="Path_34520" data-name="Path 34520" class="cls-54" d="M1176,421s1.15-2.83,10.08-1.94C1185.09,423.84,1176.75,426.16,1176,421Z" transform="translate(-230.89 -66.33)"></path><path id="Path_34521" data-name="Path 34521" class="cls-46" d="M1176,421a30,30,0,0,0,10.08-1.94" transform="translate(-230.89 -66.33)"></path><path id="Path_34522" data-name="Path 34522" class="cls-46" d="M1176,421l2.55-.37c.85-.14,1.69-.26,2.53-.42s1.67-.31,2.49-.5,1.65-.41,2.5-.62a15.83,15.83,0,0,1-4.86,1.67,20.16,20.16,0,0,1-2.58.29A15.39,15.39,0,0,1,1176,421Z" transform="translate(-230.89 -66.33)"></path><path id="Path_34523" data-name="Path 34523" class="cls-35" d="M1171,409.51c.07.8,1.12.86,2.41.76s2.31-.34,2.24-1.15-1.16-1.37-2.44-1.25S1170.93,408.71,1171,409.51Z" transform="translate(-230.89 -66.33)"></path><path id="Path_34524" data-name="Path 34524" class="cls-35" d="M1168.33,406.17c0,.11,3-2.58,3.8-2.54s3.81,1.17,4.11.75a6.37,6.37,0,0,0,.6-1.33,24,24,0,0,0-5.14-.51A9.34,9.34,0,0,0,1168.33,406.17Z" transform="translate(-230.89 -66.33)"></path><path id="Path_34525" data-name="Path 34525" class="cls-35" d="M1182.77,408.53c.07.8,1.12.85,2.41.75s2.3-.34,2.24-1.14-1.16-1.37-2.45-1.25S1182.7,407.72,1182.77,408.53Z" transform="translate(-230.89 -66.33)"></path><path id="Path_34526" data-name="Path 34526" class="cls-35" d="M1190.4,403.41a21.61,21.61,0,0,0-5-1.3c-1,.25-4.25,1.94-4.68,1.56a5.46,5.46,0,0,1-.92-1.17,35.36,35.36,0,0,1,5.9-1.56A9.17,9.17,0,0,1,1190.4,403.41Z" transform="translate(-230.89 -66.33)"></path><path id="Path_34527" data-name="Path 34527" class="cls-47" d="M1177.61,416.36s3-.09,2.91-.91-6.29-1.71-6.63-1.12S1176.27,416,1177.61,416.36Z" transform="translate(-230.89 -66.33)"></path><path id="Path_34528" data-name="Path 34528" class="cls-46" d="M1177.1,404a15.21,15.21,0,0,1,.43,5.07c-.45,1.34-3.18,4.37-3.24,5s3.09,2.21,3.32,2.29-4.48-.62-4.35-2.08,3.64-5.14,3.77-5.83S1177.1,404,1177.1,404Z" transform="translate(-230.89 -66.33)"></path><path id="Path_34529" data-name="Path 34529" class="cls-35" d="M1194.67,387.48c-14.17,1.51-20.46,14.84-30.83,14.85-6.43-11.16,13.21-39.49,36.35-17.48,10.61,10.09,1,17.82,1,17.82l-2.37,8.15s.2-6.12-1.94-8.47A13.32,13.32,0,0,1,1194.67,387.48Z" transform="translate(-230.89 -66.33)"></path><path id="Path_34530" data-name="Path 34530" class="cls-55" d="M1102,313.47,956.34,277.64h0l-18.44-4.52a13.35,13.35,0,0,0-16.09,9.82l-14.47,58.77h0l-.81,3.34-6.62,26.88a13.37,13.37,0,0,0,9.78,16.17l161.4,39.72a13.38,13.38,0,0,0,16.17-9.78l1.94-7.85h0l5.51-22.33h0l8-32.63h0l7.08-28.74a10.69,10.69,0,0,0-7.72-13l-.12,0Z" transform="translate(-230.89 -66.33)"></path><rect id="Rectangle_2215" data-name="Rectangle 2215" class="cls-32" x="942.71" y="247.61" width="118.37" height="192.94" rx="18.19" transform="translate(197.45 1168.37) rotate(-76.17)"></rect><path id="Path_34531" data-name="Path 34531" class="cls-30" d="M930.28,298.75c-5.48,14.64-3.66,34.77,11,42.1,52.42,31.25,108.31,28.48,158.85,7.87l7.07-28.75a10.68,10.68,0,0,0-7.77-12.92L953.79,271.21A59,59,0,0,0,930.28,298.75Z" transform="translate(-230.89 -66.33)"></path><rect id="Rectangle_2216" data-name="Rectangle 2216" class="cls-56" x="984.11" y="273.06" width="23.04" height="192.94" transform="translate(167.97 1181.65) rotate(-76.17)"></rect><path id="Rectangle_2217" data-name="Rectangle 2217" class="cls-56" d="M932.47,279.37l55.84,13.75a5.76,5.76,0,0,1,4.22,7h0a5.76,5.76,0,0,1-7,4.22l-55.84-13.75a5.76,5.76,0,0,1-4.22-7h0A5.76,5.76,0,0,1,932.47,279.37Z" transform="translate(-230.89 -66.33)"></path><path id="Rectangle_2218" data-name="Rectangle 2218" class="cls-56" d="M925.55,295.45l111.22,27.38a2.87,2.87,0,0,1,2.11,3.48h0a2.87,2.87,0,0,1-3.48,2.11L924.17,301a2.88,2.88,0,0,1-2.11-3.48h0A2.89,2.89,0,0,1,925.55,295.45Z" transform="translate(-230.89 -66.33)"></path><path id="Rectangle_2219" data-name="Rectangle 2219" class="cls-5" d="M1011.35,340.87l3.1.76a4.06,4.06,0,0,1,3,4.9h0a4,4,0,0,1-4.9,3l-3.1-.76a4.06,4.06,0,0,1-3-4.9h0A4,4,0,0,1,1011.35,340.87Z" transform="translate(-230.89 -66.33)"></path><path id="Rectangle_2220" data-name="Rectangle 2220" class="cls-5" d="M1025.21,344.45l3.1.77a4,4,0,0,1,3,4.89h0a4.05,4.05,0,0,1-4.9,3l-3.1-.77a4,4,0,0,1-3-4.89h0A4.05,4.05,0,0,1,1025.21,344.45Z" transform="translate(-230.89 -66.33)"></path><path id="Rectangle_2221" data-name="Rectangle 2221" class="cls-5" d="M1039.16,347.89l3.1.76a4.05,4.05,0,0,1,3,4.9h0a4.06,4.06,0,0,1-4.9,3l-3.1-.77a4.06,4.06,0,0,1-3-4.9h0A4.05,4.05,0,0,1,1039.16,347.89Z" transform="translate(-230.89 -66.33)"></path><path id="Path_34532" data-name="Path 34532" class="cls-54" d="M1073.59,315.24a12.55,12.55,0,1,0-4.69,17.13l.56-.34A12.5,12.5,0,0,1,1073.59,315.24Z" transform="translate(-230.89 -66.33)"></path><path id="Path_34533" data-name="Path 34533" class="cls-54" d="M1083.35,313.61a12.49,12.49,0,0,0-9.71,1.63,12.51,12.51,0,0,1-4.13,16.79,12.55,12.55,0,1,0,13.88-18.45Z" transform="translate(-230.89 -66.33)"></path></svg>